<?xml version="1.0" encoding="utf-8"?>
<svg version="1.1" id="design" x="0px" y="0px" width="650px" height="980px" viewBox="7.371 -2.457 464.42 954.202" enable-background="new 0 0 1400 980" xmlns="http://www.w3.org/2000/svg">
  <g id="black" transform="matrix(1, 0, 0, 1, -899.229065, 2.456919)">
    <polygon id="Viseu_2_" fill-rule="evenodd" clip-rule="evenodd" stroke-linecap="round" stroke-linejoin="round" points="&#10;&#9;&#9;1210.7,216.1 1214.1,215.8 1210.7,227.1 1209.6,232.3 1209.1,235.6 1209.8,240.3 1208.1,241.5 1204.9,241.3 1204.5,242.1 &#10;&#9;&#9;1204.6,243 1205.5,245.1 1206.6,246.1 1207.9,246.8 1209,247.3 1209.7,248.4 1209.9,249.7 1209.9,251.6 1208.7,254.6 1204.5,258.5 &#10;&#9;&#9;1199.5,257.3 1197.9,258.2 1198.4,261.8 1199,262.8 1199.4,264.5 1199.3,266.4 1196.3,273.4 1194.9,275.3 1192.8,275.2 1191.9,274 &#10;&#9;&#9;1191.1,273.4 1186.6,268.5 1184.7,267 1183.4,266.5 1180.1,266.2 1178.5,267 1177.5,268 1176.9,268.8 1175.5,273.5 1174,276.3 &#10;&#9;&#9;1172.5,278.4 1172,279.5 1172.2,280.8 1173.3,282.2 1176.6,284.8 1177.3,285.9 1177.7,287 1177.7,288.3 1177.4,289.3 1175.9,291.1 &#10;&#9;&#9;1177.3,293.7 1180.2,295.6 1182.5,298.7 1181.8,303 1180,305.2 1176.9,314.9 1177.5,318.4 1168.6,319.9 1163,322 1158.9,325.2 &#10;&#9;&#9;1155,326.5 1151.4,329 1150.1,329.4 1146.1,330 1144.8,331.4 1142.1,332.1 1140.7,333 1139.2,334.7 1134.7,338.2 1131.6,343.1 &#10;&#9;&#9;1129.2,344.4 1123.4,348.5 1116.2,351.5 1106.2,359 1098.5,357.7 1092.9,358.8 1092.4,359.3 1092,360.1 1091.9,360.9 1091.6,361.7 &#10;&#9;&#9;1091.3,362.1 1090.5,362.1 1089.4,361.1 1087.3,360.1 1085.2,358.2 1082.1,356 1078.1,354.9 1076.8,353.8 1075.3,353.2 &#10;&#9;&#9;1074.7,347.9 1078.5,342 1079.1,340.5 1079.2,338.3 1077.8,335.8 1077.6,334.7 1077.8,333.7 1080.8,331.4 1088.1,328.5 &#10;&#9;&#9;1086.5,325.8 1085.7,324.8 1084.8,323.9 1084,322.8 1083.2,319.7 1081.7,315.9 1081.7,314.7 1082.4,313.4 1083.3,312.5 &#10;&#9;&#9;1088.7,310.3 1086.5,308.5 1084.1,307.5 1083.5,307.1 1082.5,304.7 1082.4,299.8 1082,298.6 1081.2,297.2 1079.4,295.1 &#10;&#9;&#9;1078.8,294.1 1078.6,293 1078.5,292.2 1078.6,291.4 1079.9,289.2 1082.9,286.7 1086,283.2 1088.7,277.4 1089.9,275.4 1090.1,274.4 &#10;&#9;&#9;1088.6,269 1092.6,268.6 1093.7,269.1 1095.2,269.3 1096.8,269.1 1099.2,267.9 1100.7,267.9 1101.9,268.3 1102.9,269.1 1104,269.6 &#10;&#9;&#9;1105.2,269.7 1106.3,269.4 1107,268.2 1107.1,266.1 1106,263 1105.3,258.5 1104.7,256.1 1104.5,255 1105,252.9 1105.6,251 &#10;&#9;&#9;1109.8,244.9 1110,244 1110.1,243.8 1110.1,243.3 1110,242.6 1109.5,241.9 1108.6,241.9 1106.9,243.4 1106.5,243.9 1106.1,244.5 &#10;&#9;&#9;1105.2,246.6 1103.5,246.9 1101.9,246.9 1091.9,242.1 1092,238.3 1092.1,237.1 1091.7,235.4 1091.2,234.3 1083.2,229.1 &#10;&#9;&#9;1092.1,225.6 1096.4,224.6 1109.6,225.6 1113.4,225.2 1129.5,219.5 1135.3,215.8 1142.3,211.4 1145,211 1146.8,211.8 1149.8,214.9 &#10;&#9;&#9;1151.5,216.2 1153.7,216.9 1156.3,217 1158.8,216.6 1161,215.8 1164.8,213.2 1166.8,212.1 1169,211.9 1169.4,211.9 1174.9,212.5 &#10;&#9;&#9;1181.1,211.7 1196.7,205.8 1198.7,205.9 1200.7,207.3 1204.6,213.1 1206.3,214.6 &#9;" style="paint-order: stroke; stroke: rgb(23, 23, 23); fill: rgb(250, 250, 250); stroke-width: 3px;"/>
    <polygon id="Viana_do_Castelo_x0A__x0A__2_" fill-rule="evenodd" clip-rule="evenodd" stroke="#171717" stroke-linecap="round" stroke-linejoin="round" points="&#10;&#9;&#9;1096.3,56.2 1098.3,55.6 1100.6,54.5 1103.4,54.2 1105.9,55.3 1107.9,57.3 1109,59.9 1108.7,63 1107.3,65.3 1105.2,67.1 &#10;&#9;&#9;1101.4,69.6 1097.5,73.4 1092.4,81 1091.1,84.2 1090.9,87.5 1092.4,90.6 1097.2,92.5 1098.2,93.9 1098.4,96.3 1097.9,100.5 &#10;&#9;&#9;1097.8,100.5 1097.3,100.7 1095.7,100.7 1083.1,107.6 1079.9,108.8 1068.3,109.3 1066.4,109.8 1064.5,110.5 1063.5,111.2 &#10;&#9;&#9;1061.2,113.2 1058.9,114.1 1057.9,114 1056.8,113.8 1055.7,114 1055.1,114.5 1054,115.7 1053.6,117 1053.3,118.3 1053.1,121 &#10;&#9;&#9;1052.8,122.3 1052.4,123.6 1051.2,124.7 1050.6,125.9 1050.3,127 1050.9,128.9 1048.6,133.1 1047.7,132.9 1046.5,132.6 1045,131.8 &#10;&#9;&#9;1042.4,131.3 1038.5,129.9 1037.4,129.2 1036.7,129.6 1036.3,130.4 1035.3,131.2 1034.1,131.5 1027.3,131.8 1017.7,135.3 &#10;&#9;&#9;1016.4,135.5 1013.8,135.1 1013.2,135 1013.1,132.8 1012,129.6 1011.7,125.5 1012.2,123.5 1015.2,122.4 1023.3,121 1025.6,119.9 &#10;&#9;&#9;1027.7,118.4 1029.5,116.6 1014.9,121 1011.8,121.4 1010.1,121.2 1007.7,119.7 1005.2,113.9 1005.2,108.9 1006.2,100.9 &#10;&#9;&#9;1005.3,95.8 1005.9,94 1006.8,92.3 1016.2,84.4 1020.7,79.3 1022.3,72.7 1023.8,71.7 1026.8,70.1 1030.2,69.1 1032.9,67.3 &#10;&#9;&#9;1033.9,65.5 1035.3,61.6 1036.4,59.8 1038.7,58.1 1041,57.7 1045.8,57.5 1048.3,56.5 1052.8,53.4 1055.3,52.4 1075.7,49.1 &#10;&#9;&#9;1078,47.9 1081.4,44.8 1082.5,44.1 1083.5,43.8 1085.8,43.7 1088.2,42.7 1092.2,39.9 1093.4,41.6 1094.6,44.3 1094.2,52 &#10;&#9;&#9;1094.6,54.8 &#9;" style="paint-order: stroke; fill: rgb(250, 250, 250); stroke-width: 3px;"/>
    <polygon id="Vila_Real_2_" fill-rule="evenodd" clip-rule="evenodd" stroke="#171717" stroke-linecap="round" stroke-linejoin="round" points="&#10;&#9;&#9;1139.5,92.5 1140.4,91.4 1140.9,90.3 1141.5,89.3 1142.9,88.8 1146.4,89.1 1154.7,87.1 1158.4,85.1 1160.4,85.7 1164.1,88.3 &#10;&#9;&#9;1166.4,89.5 1173.5,89.8 1171.5,95.3 1171.6,97 1173.7,98.2 1176,98.5 1178.9,98 1181.6,97.1 1183.6,95.6 1184.3,94.3 1184.4,93.1 &#10;&#9;&#9;1184.7,92.1 1185.6,91.2 1186.7,91.2 1188.7,92.7 1189.9,92.8 1191.8,93.4 1193.5,95.8 1194.8,98.9 1195.3,101.7 1197.1,100.2 &#10;&#9;&#9;1200.3,96.5 1202,95.3 1204,94.9 1208.8,95.1 1211.2,94.7 1220.6,91.4 1225,88.7 1226.2,86.9 1226.4,87.8 1227.2,91.3 1226.9,93.2 &#10;&#9;&#9;1226.6,96.7 1226.9,99.9 1227.3,101.6 1228.5,104.8 1230.9,108.2 1231,109.6 1231,112.1 1230.7,113.1 1230,114.1 1229.2,114.5 &#10;&#9;&#9;1228.1,115.6 1224.8,122.6 1220.5,137.4 1219.9,142.1 1220.1,144.4 1220.6,145.8 1221.2,147 1221.9,148.2 1222.4,149.4 &#10;&#9;&#9;1222.6,150.5 1222.2,151.4 1221.2,151.9 1220.1,152.2 1218.8,152.3 1217.5,152.8 1216.3,154.3 1214.8,157.3 1213.8,160.1 &#10;&#9;&#9;1212.6,161.6 1211.5,162.3 1210.3,162.8 1206,166.1 1205.9,174.8 1206.7,178.3 1207.6,180.7 1208.8,182.1 1211.9,184 1207.3,185.5 &#10;&#9;&#9;1205,188 1204.7,189.8 1205,190.9 1204.7,191.6 1203.4,193.1 1202.2,194.7 1201.7,196.9 1201.6,198.4 1201.7,199.6 1201.9,200.5 &#10;&#9;&#9;1201.4,200.8 1199.5,201.1 1198.3,201.7 1197.7,202.7 1197.5,203.5 1196.7,205.8 1181.1,211.7 1174.9,212.5 1169.4,211.9 &#10;&#9;&#9;1169,211.9 1166.8,212.1 1164.8,213.2 1161,215.8 1158.8,216.6 1156.3,217 1153.7,216.9 1151.5,216.2 1149.8,214.9 1146.8,211.8 &#10;&#9;&#9;1145,211 1142.3,211.4 1135.3,215.8 1136,211.7 1136.2,207.5 1138.1,200.4 1137.5,200.1 1135.8,198.9 1133.6,194.8 1133,192.2 &#10;&#9;&#9;1133.6,189.9 1130,187.1 1128.1,186.1 1127.1,184.6 1126.9,183.1 1127,181.5 1124.8,178.7 1126,175.6 1126,174.7 1125.6,173.5 &#10;&#9;&#9;1125.9,172.9 1126.4,172.7 1127,172.2 1127.4,171 1129.3,167.7 1129.7,166.5 1129.9,165.6 1129.3,164.3 1130.5,160.1 1131.7,158.4 &#10;&#9;&#9;1132.4,157.9 1133,157.8 1134.1,158.2 1135.5,156.8 1136.1,154.7 1136.6,154.2 1139.1,153.1 1140.7,151.3 1146,143.3 1146.3,141.2 &#10;&#9;&#9;1144,137.2 1143.3,136.5 1142,135.7 1139.3,138.8 1135.3,140 1133.7,139.9 1128.5,138.8 1127.3,138.3 1126,137.7 1124.5,137.3 &#10;&#9;&#9;1121.8,136.2 1122.3,128.3 1122.6,126.6 1123.2,124.4 1122.8,123.3 1122.1,122.7 1118.7,120.5 1117.8,120.1 1117,120 1114.4,121.2 &#10;&#9;&#9;1113.5,121.4 1112.3,121.1 1111.3,121.1 1110.3,121.3 1109.5,121.6 1107.8,121.9 1106,121.8 1109,118.3 1109.7,117.2 1110.4,115.6 &#10;&#9;&#9;1111.5,111.8 1112.8,109.6 1113.7,104.5 1114.4,103.3 1115.1,102.2 1115.3,101.2 1115.3,100.3 1114.9,99.9 1115.2,99.8 &#10;&#9;&#9;1119.5,95.3 1120.8,93.2 1122.4,91.5 1124.3,90.6 1126.4,90.9 1128.9,90.9 1130.2,88.6 1130.8,85.6 1131.4,83.6 1134,82.5 &#10;&#9;&#9;1134.4,87.3 1135.3,92.5 &#9;" style="paint-order: stroke; fill: rgb(250, 250, 250); stroke-width: 3px;"/>
    <path id="Setúbal_2_" stroke-linecap="round" stroke-linejoin="round" d=" M1104.4,715.7l-1-4.2l-3.2-7l-5-3.9l-2.5-0.9l-1.2,0l-1.3-0.2l-1.2-0.4l-2.7-1.6l-1.8-1.5l-2.9-1.1l-0.8-0.4v-1.3l2.1-3.8l0.5-3 l-0.7-1.3l-1-0.7l-1.9-0.9l-0.6-1l0-0.9l0.5-0.6l0-1l-1.8-4.7l-0.1-1l-0.1-0.5l0-0.2l-0.1-0.1l-0.6-0.9l-1.7-1.8l-2.5-3.2l-1.2-0.6 l-2.5,0.6l-3,2l-1.9,0.7l-3.8,0.2l-1.6-0.6l-1.2-0.9l-0.8-0.8l-0.4-0.9l-0.9-0.6l-1.2-0.1l-0.5,0.6l0.2,0.8l0.2,1.1l-0.2,0.9 l-0.8,0.5l-3.2-1.1l-3.8-0.6l-5.1-3.1l-3.9-0.5l-0.8-4.1l-0.4-1.3l-0.6-1.1l-0.1-1.6l0.1-1.3l4.8-6.1l11.1-7.8l2.1-2.6l1.1-1.6 l0.3-2.1l-0.1-1.1l1.4-2.7l-0.3-1.7l-0.8-0.5l-5.5-1l-3.4-0.6l-1.2,0l-1.5-0.4l-1.5-1.9l-0.2-1.4l0-1.5l0.2-1.3l0-1.3l0.2-1.3 l-0.1-0.8l-0.7-0.4l-2.2,1l-2.5,1.5l-3.7-1.4l-1.5-1l-0.8-0.7l-1-0.5l-0.9,0.3l-3.8,7.7l-1.6,4.7l-0.3,1.3l-2,2.6l-2.2,0.7 l-0.9-0.1l-3.7-1.3l-1.2-1.7l-1-0.5l-1.5-0.2l-2.2,0.6l-1.4,0.8l-2.7,1.1l-1.5,0.1l-1.3-0.4l-1.1-1.2l-0.7-2.5l0.2-2.1l-1.1-0.1 l-1.5,0.4l-0.6,0.2l-0.8,0.7l-0.5,0.4l-4.7,4.1l-3.8,2.9l-2.2,2.1l-2,2.4v1.1l-2,0.2l-4.2,1.1l-2,1.1l0.8,3.5h-0.8l-1.4-2l-2.8-1.7 l-5.6,0.5l-6.2,0.8l-2.4,1.3l1.9,5.1l4,6.4l3.2,7.8l0,8l-0.8,5.3l-4,4l-1,1.5l-0.5,0.5l-0.4,1.1l0,1.2l0.4,0.9l0.6,0l3.4,1l2.4-0.5 l2.1-1.6l2.7-1.1l12.8-1.6l7.5-3.2l-1-0.8l5.9-6.9l6.5-1.2l5.1,1.8l4.7,2.5l2.6,0.7l3.2,0.2l1.1-1.3l0-2.8l-1.4-2.4l-2.9-0.4v-1 l2.6-0.9l2.6-5.4l2.1,0.3l-0.9,1.9l0.4,2.4l1.3,2l1.9,0.7v1.3l-1.1,0.8l-0.7,1.6l-0.2,2.1l0.2,2.4l0.8,2.3l1.2,1.4l9.7,4.6l3.4,0.7 l4,0.2l-6.6,2.1l-13.2-3.6l-5.5,0.2l-0.2-2.2l-2.9-1.6l-6-2.1l-4.9-4.3l-3-1.3l-2,2.1l3.7,1.4l4.8,4l4.2,4.9l3.4,3.6l3.4,6.7 l1.3,9.3l1,10.6l0.5,9l-3,9l-2.5,11.9l-6.9,14.8l-1,1.1l-1,0.5l-0.9,0.6l-0.6,1.4l5.4,3.4l4.4,0.8l2.1,4.3l0.8,4l0.2,5.6l-0.6,3 l1.3,1.3l0.8,1.1l0.7,0.5l1,0.1l0.9-0.6l1.1-0.5l0.9-0.3l2.3,0.8l1,1.2l0.5,0.9l3.4,4.2l1.2,2.3l0.7,0.8l0.8-0.1l0.5-0.8l0.4-0.9 l0.8-0.5l1,0.2l1.1,0.6l1,0.8l2.3,1l1.5,0.1l2.2-0.8l0.8-1.1l0.3-1.3l0.1-1.3l1.2-3.7l0.7-1.2l2.3-2.4l0.6-1.2l0.3-1.2l1.3-1.2 l2.3-1.1l11.8-2.3l5.8,1l3.5,0l0.5,0.1l3.9,2.1l1.8-4.7l0.6-1.2l1.5-4.5l0.9-7.4l-0.1-4.8l-1.3-3.6l-0.9-1.7l-1.8-1.4l-1.7-0.1 l-1.5-0.3l-1.7-0.8l-2-2.4l-2.6-2l-0.6-1.7l-0.2-0.9l-0.1-0.9l0.4-1.1l0.2-1l0.4-1l0.3-1.2l0.7-1.5l0.9,0l0.7,0.4l0.8,0.3l0.6,0 l0.5-0.7l0.3-0.6l0.6-1.6l0.2-0.8l0-0.9l0.1-0.7l0.3-0.7l0.9-0.4l0.8-0.8l0.9-0.2l1.3,0.6l1,0.8l1.1,0.4l0.9-0.5l0.9-2.9l0.1-1.4 l0.5-1.1l1-0.7l4.7,0.2l0.9-1.3l0.5-1.8l1.1-0.6l4.6-1.2l2.3-1.2l4.7-1.3l0.6-1.9l0-1.1L1104.4,715.7z M1010.5,675.8l-0.9,0.2 l-0.2,0.6l0,0.6l1.1,1l0.7-1.5L1010.5,675.8z" style="paint-order: stroke; stroke: rgb(23, 23, 23); fill: rgb(250, 250, 250); stroke-width: 3px;"/>
    <polygon id="Santarém_2_" fill-rule="evenodd" clip-rule="evenodd" stroke-linecap="round" stroke-linejoin="round" points="&#10;&#9;&#9;1063,462 1065.4,461.2 1070.9,459.2 1072.6,458.8 1075.5,457.5 1078.1,457.8 1078.7,457.5 1078.3,454.1 1078,452.9 1078.2,452 &#10;&#9;&#9;1079.2,452.4 1084.7,453 1085.5,455.6 1086.7,456.5 1088.5,456.9 1090,457.6 1090.9,458.6 1091.3,459.5 1091.5,460.3 1091.5,461.3 &#10;&#9;&#9;1091.4,462.1 1091.7,465.3 1090.7,466.8 1090.7,470.1 1091.3,476.2 1092.5,478.4 1099.8,481.3 1103.2,483.7 1106,483.8 &#10;&#9;&#9;1110.6,483.3 1113.5,482.3 1113.4,481.3 1113.2,480.2 1112.3,477.6 1112.2,475.7 1112.8,473.5 1113.9,471.8 1115.4,463 &#10;&#9;&#9;1116.1,461.7 1118.8,461.2 1123,462.7 1126.2,462.8 1127,463.5 1127.4,464.6 1127.6,465.8 1127.7,467.1 1127.9,468.4 1128,471 &#10;&#9;&#9;1127.8,473.6 1128.2,475.1 1129.1,475.6 1130.5,476 1132.1,476.2 1134.8,477.1 1136.8,478.8 1139.2,480.3 1142,483.5 1144.7,487.8 &#10;&#9;&#9;1145.2,489.1 1146.2,492.1 1147.4,493.8 1144.6,495.5 1143.7,496.1 1141.2,499.2 1140.6,499.7 1139.9,500.1 1139.7,499.8 &#10;&#9;&#9;1137.9,498.1 1132.5,495.1 1130,494.4 1128.2,495.1 1125.8,497.3 1123,501.4 1120.2,508.9 1125.4,514.4 1127.6,515.9 1128.1,517.1 &#10;&#9;&#9;1128.3,518.2 1125.7,522.4 1119.3,526.7 1118.4,527.6 1118,529.8 1117.4,531.1 1115.5,534.1 1112.4,537.8 1111.8,538.7 &#10;&#9;&#9;1111.2,539.5 1110.3,540.3 1108.4,540.8 1105.8,540.3 1104.5,540.7 1102.8,542.4 1101.4,545.9 1098.2,548.5 1090.4,555.8 &#10;&#9;&#9;1083.1,561 1081.3,562.9 1077.5,569 1077.4,571.8 1080.5,573.2 1081.9,574.2 1083.1,575.4 1083.6,577.1 1084,578.4 1084.8,579.7 &#10;&#9;&#9;1086.3,580.9 1087.2,582.7 1087.6,584.1 1087.9,585.3 1089.7,586.8 1095.6,588.8 1094.4,590.9 1093.6,591.5 1091.8,591.6 &#10;&#9;&#9;1091.2,591.8 1090.5,592.9 1090.1,594.4 1090,597.2 1089.7,599 1089.2,600.5 1088.4,601.5 1087.6,602.5 1087.2,603.6 1087.5,604.9 &#10;&#9;&#9;1088.5,605.8 1089.5,606.4 1096.3,609.5 1097.9,609.8 1098.4,610.3 1099.1,611.6 1098.4,614.5 1098.4,615.8 1099.2,617.3 &#10;&#9;&#9;1101.3,619.6 1102.4,619.8 1103.5,620.3 1104.3,621.2 1104.5,622.7 1103.8,625 1101.5,627.2 1099.4,626.1 1098.8,625.2 &#10;&#9;&#9;1098.1,623.1 1097.4,622.7 1096.8,622.9 1096,622.8 1095.6,622.1 1095.4,621.1 1094.9,620 1094.1,619.2 1092.7,618.7 1088.5,617.8 &#10;&#9;&#9;1087.4,616.9 1083.8,613.2 1082.9,612.5 1082,612.5 1081.5,613.3 1081.2,614.1 1080.5,614.5 1079.7,614.3 1078.4,614.3 &#10;&#9;&#9;1076.9,614.9 1075.2,614.8 1072.9,613.8 1072,614 1071.7,614.8 1071.4,615.8 1070.8,616.6 1070.2,617.3 1069.5,617.7 1068.5,618 &#10;&#9;&#9;1067,617.8 1065.6,618.2 1062.9,621 1061.5,622 1055.6,623.1 1049.3,628.5 1045.9,627.9 1044.6,628 1043.1,627.6 1041.6,625.7 &#10;&#9;&#9;1041.4,624.3 1041.5,622.8 1041.7,621.5 1041.7,620.2 1041.9,619 1041.9,618.1 1041.2,617.7 1039,618.8 1036.4,620.3 1032.8,618.9 &#10;&#9;&#9;1031.2,618 1030.4,617.2 1029.5,616.7 1028.6,617.1 1024.7,624.7 1023.1,629.4 1022.8,630.8 1020.8,633.4 1018.6,634.1 &#10;&#9;&#9;1017.7,634.1 1013.9,632.7 1012.7,631.1 1011.7,630.6 1010.2,630.3 1008,631 1006.6,631.7 1003.9,632.8 1002.4,633 1001.1,632.5 &#10;&#9;&#9;1000,631.4 999.3,628.8 999.5,626.7 998.5,622.8 998,621.7 997.5,620.9 995.1,618.1 995.2,616 997.1,613.9 998,612.6 1000,608.9 &#10;&#9;&#9;1004.6,596.4 1005.9,593.5 1007.2,591.8 1007.8,590.1 1010.4,586.2 1009,585.1 1008.6,583.6 1013.5,582.2 1016.2,578.9 1017,578.5 &#10;&#9;&#9;1017.3,577.9 1017.1,576.9 1017.1,576.9 1019.1,574.7 1020.4,572.3 1016.9,574.9 1016.9,574.9 1015.8,572.6 1015.2,571.7 &#10;&#9;&#9;1014.7,571 1013.8,570.4 1011.1,569.3 1010.3,568.6 1006.4,565.1 1005.8,564.1 1004.8,561.9 1003.9,561.1 1002.8,560.6 &#10;&#9;&#9;1002.2,559.7 1002.2,558.7 1004.1,557.3 1005.7,556.8 1009.7,557 1011.7,556.4 1013.6,554.7 1007,548.1 1005.9,545.6 1000.6,547.2 &#10;&#9;&#9;991.4,544.6 991.7,542 990.1,538 989.7,532.4 988.9,529.3 989.5,527.3 992.4,522.3 995,521.7 996.1,521 997.3,519.3 1001.5,510.5 &#10;&#9;&#9;1003.3,508.6 1007.2,507.1 1015.8,506.4 1022.2,507.1 1024.1,505.7 1024.4,504.4 1024.6,503.8 1024.6,503.5 1024.4,503.1 &#10;&#9;&#9;1023.5,501.3 1023.3,499.9 1023.4,498.8 1024,498 1025,498 1026,498.5 1027.4,498.5 1028.4,498.2 1031.8,493.8 1032.7,492.4 &#10;&#9;&#9;1031.1,487.8 1030.9,484.7 1029.7,479.3 1032.6,477 1033.8,476.3 1034.9,475.5 1035.9,474.4 1036.4,472.9 1035.9,470.1 &#10;&#9;&#9;1034.8,468.8 1033.7,467.9 1032.8,467 1032.4,465.7 1032.5,463.7 1032.1,460.6 1032.1,459.3 1032.8,457.8 1033.5,456.7 1039.6,454 &#10;&#9;&#9;1042,454.6 1043.6,454.3 1046,453 1052.5,448.3 1054.3,447.7 1055.5,447.7 1057.3,446.3 1059.3,445.6 1061.2,452.9 1061.4,454.7 &#10;&#9;&#9;1062.3,458.8 1062.5,460.2 1062.9,461.2 &#9;" style="paint-order: stroke; stroke: rgb(23, 23, 23); fill: rgb(250, 250, 250); stroke-width: 3px;"/>
    <polygon id="Porto_2_" fill-rule="evenodd" clip-rule="evenodd" stroke-linecap="round" stroke-linejoin="round" points="&#10;&#9;&#9;1041.7,182.4 1042.1,182.3 1043.4,182.1 1050.9,182.1 1051.9,181.7 1053,181.5 1053.9,180.5 1055,179.8 1057.5,178.3 1059.7,177.7 &#10;&#9;&#9;1061.4,177.7 1062.4,178.3 1063.3,179 1066.6,179.4 1070.7,178.4 1076.1,177.6 1077.2,178 1079,179.3 1079.8,179.3 1083,178.1 &#10;&#9;&#9;1083.9,177.8 1088,175.9 1090.6,173.9 1092.6,170.9 1099.1,173.3 1101.8,176.1 1102.4,177.2 1102.1,178.8 1106.8,182.3 1111,184.2 &#10;&#9;&#9;1112.5,183.8 1115.3,185.4 1116.8,186.7 1118.2,186.6 1119.2,186.2 1120.2,185.3 1120.9,184.7 1121.4,184 1122.3,183.2 1123,182.7 &#10;&#9;&#9;1123.6,182.1 1124.1,181.2 1124.4,180.5 1124.8,178.7 1127,181.5 1126.9,183.1 1127.1,184.6 1128.1,186.1 1130,187.1 1133.6,189.9 &#10;&#9;&#9;1133,192.2 1133.6,194.8 1135.8,198.9 1137.5,200.1 1138.1,200.4 1136.2,207.5 1136,211.7 1135.3,215.8 1129.5,219.5 1113.4,225.2 &#10;&#9;&#9;1109.6,225.6 1096.4,224.6 1092.1,225.6 1083.2,229.1 1082.7,231 1082.2,231.5 1075.8,236 1073.2,235.1 1069.7,236.8 1069.6,237.7 &#10;&#9;&#9;1069.7,238.8 1070.3,239.8 1070.5,240.9 1070.1,241.7 1069,241.7 1066.6,239.8 1065.6,237.9 1065,236.9 1062.3,234 1060,236.6 &#10;&#9;&#9;1059.4,237.6 1058.5,240 1057.5,240.7 1056.2,240.8 1054.3,239.8 1053.2,238.8 1052,238.1 1050.4,238.1 1048.4,239.6 1044.2,241.1 &#10;&#9;&#9;1042,239.7 1036.2,240.5 1035,240.8 1034.9,240.8 1034.9,238.4 1033.4,226.6 1033.5,220.5 1035.8,218 1035.8,217 1030.9,215.8 &#10;&#9;&#9;1028.3,211 1026.6,204.9 1024.1,199.9 1024.7,197.6 1024.4,195.6 1023.7,193.7 1023.1,191.5 1023.1,186.1 1022.5,184.4 &#10;&#9;&#9;1021.6,183.9 1021,182.1 1020.5,180.3 1018.7,177.1 1017.9,174.5 1017.9,172.4 1017.7,167.3 1019.1,161.5 1022.2,161.6 &#10;&#9;&#9;1025.3,163.5 1028.7,165.1 1032.1,165.2 1033.4,165.7 1034.5,166.7 1035.3,167.7 1037.6,170 1039.4,171.2 1040.9,171.5 &#10;&#9;&#9;1042.2,172.7 1042.7,173.8 1042.3,174.7 1041.5,175.1 1040.2,175.5 1039.3,176.8 1039.4,178.2 1040,180.6 1040.7,181.8 &#9;" style="paint-order: stroke; stroke: rgb(23, 23, 23); fill: rgb(250, 250, 250); stroke-width: 3px;"/>
    <polygon id="Portalegre_2_" fill-rule="evenodd" clip-rule="evenodd" stroke-linecap="round" stroke-linejoin="round" points="&#10;&#9;&#9;1180.3,473.2 1181.4,475.6 1185.6,487.5 1188,489.7 1192,495 1194.2,497.1 1198.6,499.4 1199.8,500.9 1201,504.7 1203.1,506.3 &#10;&#9;&#9;1205.9,507.7 1211.4,509.2 1212.4,510.9 1212.4,514.5 1211.7,518.4 1210.7,520.9 1210,523.3 1210,527.1 1210.7,530.7 1211.6,532.7 &#10;&#9;&#9;1214.1,534.7 1220.7,542.8 1218.9,545.9 1218.7,549.5 1219.7,552.9 1221.6,555.6 1224.9,557.4 1228.5,558.4 1231.6,559.9 &#10;&#9;&#9;1233.3,563.1 1233,564.9 1231.5,568.2 1231.7,569.6 1233.1,571 1235,572 1237,572.3 1238.6,571.7 1241.8,569.8 1245.3,569.4 &#10;&#9;&#9;1248.7,570.3 1251.8,572.4 1253.9,574.5 1255.8,577.6 1256.6,580.9 1255.7,583.8 1257.2,585 1257.4,586.6 1256.7,588.3 1255.4,590 &#10;&#9;&#9;1251,598.6 1248,602.8 1245.1,605.1 1247,608.5 1246.3,611.1 1246.5,613.5 1245.4,614.2 1243.8,615.6 1242.1,617.2 1240,618.3 &#10;&#9;&#9;1233.9,619.6 1232.6,620.7 1231.9,622.3 1230.1,624.4 1227.9,626.3 1225.9,627.1 1224,628.6 1223.9,628.6 1223,627.5 1223.1,625.9 &#10;&#9;&#9;1223.4,625 1225.4,622 1225.5,620.8 1225.4,618.5 1225,617.4 1223.4,616.3 1221.8,615.5 1219.4,615.7 1215.5,617 1212.6,619.4 &#10;&#9;&#9;1210,622.3 1208,622.9 1207.4,622.6 1205,622.7 1203.1,621.5 1201.9,620.4 1200.2,617.1 1199.2,615.8 1200,613.2 1198,610.4 &#10;&#9;&#9;1197.7,608.2 1196.7,604.9 1193.8,602.2 1193.7,600.4 1193.4,599.4 1193.1,596.4 1192.2,594.8 1190.1,592.7 1184.8,590.5 &#10;&#9;&#9;1184.2,588.9 1184,588.9 1183.7,588.9 1183,588.9 1181.2,590.2 1182.2,591.5 1182.6,592.4 1182.6,593.6 1182.1,594.7 1180.8,595.6 &#10;&#9;&#9;1178.9,596.4 1176.1,597 1174.2,597.6 1172.3,599.2 1171.4,600.5 1170.7,601.7 1170.2,602.3 1169.5,602.7 1168.4,602.9 &#10;&#9;&#9;1165.5,601.7 1164.1,601.5 1162.9,601.5 1161.6,602.2 1160.5,601.9 1158.5,600.7 1157.4,600.6 1155.3,603.2 1154,604.5 &#10;&#9;&#9;1149.7,606.1 1146.9,606 1145.8,606.1 1144.4,606.1 1143,605.9 1139.2,603.3 1133.3,595.2 1131.8,594 1128.9,594.5 1126.8,596 &#10;&#9;&#9;1126,597 1125,597.8 1124,598.4 1122.8,598.6 1119.6,598.2 1119.1,597.8 1119.2,595.9 1119.1,593.4 1118.8,592 1115.9,588.8 &#10;&#9;&#9;1115.7,588.6 1115.1,588.3 1113.9,587.9 1111.9,588.2 1110.3,588.8 1110.2,588.9 1110.1,589.1 1110,589.5 1109.8,590.3 &#10;&#9;&#9;1109.8,591.4 1109.4,592.4 1108.6,592.7 1107.7,591.7 1107.1,589.4 1107.6,587.1 1108,586.1 1108,585.2 1106,584.4 1102.3,584.6 &#10;&#9;&#9;1101.3,584.9 1100.4,585.5 1098.2,586.4 1095.6,588.8 1089.7,586.8 1087.9,585.3 1087.6,584.1 1087.2,582.7 1086.3,580.9 &#10;&#9;&#9;1084.8,579.7 1084,578.4 1083.6,577.1 1083.1,575.4 1081.9,574.2 1080.5,573.2 1077.4,571.8 1077.5,569 1081.3,562.9 1083.1,561 &#10;&#9;&#9;1090.4,555.8 1098.2,548.5 1101.4,545.9 1102.8,542.4 1104.5,540.7 1105.8,540.3 1108.4,540.8 1110.3,540.3 1111.2,539.5 &#10;&#9;&#9;1111.8,538.7 1112.4,537.8 1115.5,534.1 1117.4,531.1 1118,529.8 1118.4,527.6 1119.3,526.7 1125.7,522.4 1128.3,518.2 &#10;&#9;&#9;1128.1,517.1 1127.6,515.9 1125.4,514.4 1120.2,508.9 1123,501.4 1125.8,497.3 1128.2,495.1 1130,494.4 1132.5,495.1 1137.9,498.1 &#10;&#9;&#9;1139.7,499.8 1139.9,500.1 1140.6,499.7 1141.2,499.2 1143.7,496.1 1144.6,495.5 1147.4,493.8 1149.3,491.7 1151.2,489 &#10;&#9;&#9;1153.4,486.7 1156,485.7 1156.8,484.5 1158.1,481.8 1159.7,479 1161.9,477.4 1164.9,477.6 1167.2,478.8 1169.4,479.2 1172.4,476.9 &#10;&#9;&#9;1174.1,475.1 1176.4,473.6 1179,472.6 1180.3,473.2 &#9;" style="paint-order: stroke; stroke: rgb(23, 23, 23); fill: rgb(250, 250, 250); stroke-width: 3px;"/>
    <path id="Lisbon_2_" stroke-linecap="round" stroke-linejoin="round" d=" M987.5,603.5l-0.6-1l-1.1,2.6l-0.2,2.7l0.9-0.9L987.5,603.5z M983.9,611.4l-0.4,0.3l-0.8,0.7l-1.5,1.6l-1.3,2.5l-1.1,3l0.9,0.3 l2.5-2.5l1.7-2.7l0.9-2.5l-0.1-1.1L983.9,611.4z M977.5,615.5l4.1-4.7l7.3-14.7l6.4-9.3l2.5-4.9l1.7-1.5l11.4-1.3l5.9-4.4l-1.1-2.3 l-0.5-0.9l-0.6-0.7l-0.9-0.7l-2.7-1.1l-0.8-0.6l-3.8-3.5l-0.6-1.1l-1-2.2l-0.9-0.7l-1.1-0.6l-0.6-0.9l0-1.1l1.9-1.4l1.6-0.5l4,0.2 l2.1-0.6l1.8-1.7l-6.6-6.6l-1.1-2.5l-5.3,1.6l-9.2-2.7l0.3-2.6l-1.6-4l-3.7-0.9l-2.5-1.1l-1.9-0.3l-1.5,0.2l-0.9,0.4l-1.3,0.9 l-2.8,3.4l-3.1,5.4l-2.6,3.1l-2.8,2.3l-2.1-2l-3-10.3l-1.1-2l-1-1.4l-0.9-0.5l-0.7,0.2l-1.7-0.3l-1.1,0.8l-5.6,3.3h-5.1l-1.2,0.1 l0.9,4.4l-0.8,5.4l-0.5,6.5l-2.7,6.2l-1.6,4.6l-5.1,9.4l-0.5,4.6l-1.3,3.8l1.5,6.4l0.3,10.2l-4.3,13.7l-3.2,3.3l-1.6,2l-0.7,1.6 v3.7l1.7,7.4l-0.9,2.9l-0.1,3.4l2.6,0.9l5.6-0.8l3.2,0.5l5.8,2.5l5.1,3.3l2.4-2.9l2.4-1.9l8.6,0.8l7.5-1.3l6.7-2.1l1.9-4l-0.5-4 l-0.3-5.6l-0.3-3.2l0.8-2.8L977.5,615.5z M1017.1,576.9L1017.1,576.9L1017.1,576.9l-4.8,3.6l-2.5,1.1l-5.7,0.5l-2.6,0.7l-4.6,3.6 l-3.4,5.3l-5.6,12l1.2,4l0.8,4.1l1.4,2.7l3.1-0.2l-0.9,2.6l0.8,3.5l1.5,3.4l1.3,2.2v1l1.5-0.4l1.1,0.1l-1-3.9l-0.5-1.1l-0.5-0.7 l-2.3-2.9l0-2.1l1.9-2l0.9-1.3l2-3.7l4.6-12.4l1.4-2.9l1.3-1.7l0.6-1.8l2.6-3.9l-1.4-1.1l-0.4-1.5l4.9-1.4l2.7-3.2l0.8-0.5l0.3-0.6 L1017.1,576.9z M987.7,609l-1,0.6l-0.8,2.3l1.2,1.3l1.9-0.7l0.2-1.6l-0.7-1.3L987.7,609z" style="paint-order: stroke; stroke: rgb(23, 23, 23); fill: rgb(250, 250, 250); stroke-width: 3px;"/>
    <path id="Leiria_2_" stroke-linecap="round" stroke-linejoin="round" d=" M921.6,518.8l1.4-1.5l-0.9-0.3L921.6,518.8z M1105.8,424.8l1.5-1.2l-5.5-8.9l-0.4-3l0.9-4.9l-0.5-1.1l-0.8-1.3l-0.8-0.7l-1.7-1.1 l-4.1,5.4l-4-1.5l-5.6,5.1l-2,3.2l0.1,1l0.2,1.3l0.4,0.6l1.6,1.5l0.6,1l-0.3,1.4l-0.8,0.8l-1.1,0.1l-2.1-1l-1.4,0.2l-4.6,5.3 l-5.4,2.1l-1.1,0l-0.9-0.3l0.6-0.6l1-0.7l0.7-1.1l0.3-1.4l-0.6-2.3l-1.3-3.3l-1.8-3.7l-0.9-0.8l-1.2-0.2l-0.3,0.9l-2.7-0.2 l-4.3,3.7l-3.5,2.1l-2.4,3l-0.9,0.8l-0.6-0.6l-0.5-0.9l-0.2-1.3v-2.8l-0.2-1.6l-0.9-3.9l-0.8-1l-0.9-0.4l-0.8-0.1l-1,0.1l-1,0.5 l-0.9,0.7l-2,3.4l-0.4,0.3l-0.7,0.4l-1.4,0.1l-0.9-0.3l-0.4-0.3l-1.2-1.8l-2.3-2l-1.6-1l-2.8-0.7l-2.6-0.2l-6.8-0.7l-3.3,1.4 l-1.6,1.2l-1.3,0.2l-4.3-0.9l-1.9-0.9l-1.2-0.8l-3.4-1.6l-0.8-0.3l0,0l-12,35.2l-10.4,28l-0.8,6.5l-1.6,4.6l0.3,3.3l-0.3,3 l-2.7,4.9l-1.4,2.7l-1.9,3.2l-3.8,2.4l-2.4,1.6l-1.1,1.9l-3,3.5l-2.1,3.5l2.2,2.1l1,2.2l-1.5,1.6l-1.4-0.4l-1.6-2l-2.7,0.3 l-2.4,2.2l-9.7,6.5l-5.9-1.7l-1.5,0.5l1,1.7l4.8,5l1.6,3.4l0.9,4.1l1.2-0.1h5.1l5.6-3.3l1.1-0.8l1.7,0.3l0.7-0.2l0.9,0.5l1,1.4 l1.1,2l3,10.3l2.1,2l2.8-2.3l2.6-3.1l3.1-5.4l2.8-3.4l1.3-0.9l0.9-0.4l1.5-0.2l1.9,0.3l2.5,1.1l3.7,0.9l-0.4-5.6l-0.8-3.1l0.5-2 l2.9-4.9l2.6-0.6l1.1-0.8l1.2-1.7l4.2-8.8l1.8-1.9l3.9-1.5l8.7-0.7l6.4,0.7l1.9-1.4l0.3-1.3l0.2-0.6v-0.3l-0.2-0.4l-0.9-1.9 l-0.2-1.4l0.1-1.2l0.6-0.8l1,0.1l1,0.5l1.3,0l1.1-0.3l3.4-4.4l0.8-1.3l-1.6-4.6l-0.2-3.2l-1.2-5.4l2.9-2.3l1.2-0.7l1.1-0.8l1-1 l0.5-1.5l-0.5-2.8l-1-1.3l-1.1-0.9l-0.9-0.9l-0.4-1.3l0-2l-0.3-3.1l0-1.3l0.7-1.5l0.7-1.1l6.1-2.7l2.4,0.7l1.6-0.3l2.4-1.3l6.4-4.7 l1.8-0.6l1.2-0.1l1.8-1.4l2-0.6l1.8,7.2l0.3,1.9l0.9,4.1l0.2,1.4l0.3,1l0.2,0.8l2.4-0.8l5.5-2l1.7-0.4l2.9-1.3l2.6,0.4l0.6-0.4 l-0.4-3.4l-0.3-1.2l0.1-0.8l1,0.4l5.5,0.5l-0.7-1.9l0-0.8l1-1.5l0.8-0.7l0.1-1.1l-0.1-0.9l0.7-1l0.7-0.7l5.8-1.8l1.3,0.2l0.8-0.7 l1.1-1.5l1.2-1.3l1.2-0.6l1.1-0.3l1.3-0.9l1.3-1.2l2.6-5.1l0.4-2.1l-0.1-0.3l-0.2-0.7l-0.4-0.9l0.6-1.8L1105.8,424.8z" style="paint-order: stroke; stroke: rgb(23, 23, 23); fill: rgb(250, 250, 250); stroke-width: 3px;"/>
    <polygon id="Guarda_2_" fill-rule="evenodd" clip-rule="evenodd" stroke-linecap="round" stroke-linejoin="round" points="&#10;&#9;&#9;1263.5,235.3 1263.4,235.3 1262.9,238.6 1261.5,240.9 1261.8,243.1 1263.1,245.1 1267.2,249.6 1269.1,252.7 1271.9,259.8 &#10;&#9;&#9;1273,263.5 1274.1,264.9 1276.1,265.5 1277.5,266.5 1278.2,268.8 1277.6,271 1275.5,271.7 1275.3,276.1 1275.5,277.3 1275.9,279.1 &#10;&#9;&#9;1275.8,280.1 1275.4,281 1275.2,282.8 1275.2,286.1 1275.4,288.6 1277.1,294.3 1278.2,300.2 1278.4,303.3 1278.4,305.4 &#10;&#9;&#9;1277.5,308.3 1274.5,314 1273.7,316.7 1273.9,319.7 1275.1,321.5 1276.6,323.1 1277.9,325.4 1278.7,328.5 1278.3,330.6 1275.2,335 &#10;&#9;&#9;1272.8,341.1 1273.5,346.7 1276.6,351.7 1281.1,355.9 1278.8,360.1 1277.6,361.3 1271.9,365.5 1271,366.5 1270.6,367.8 &#10;&#9;&#9;1270.5,369.3 1270.4,370.7 1270,371.7 1267.6,373.4 1265,373.6 1262.4,373.4 1261.5,373.5 1261.5,373.5 1260.9,372.8 1259.6,371.3 &#10;&#9;&#9;1257.5,369.9 1254.2,368.2 1253.4,368.1 1252.1,367.9 1249.9,368.5 1246.9,368.7 1243.9,368.1 1242.7,367 1241.4,364.7 &#10;&#9;&#9;1240.9,363.5 1240.2,362.7 1239.3,362.4 1237.9,363.7 1237.1,364.9 1236.5,366.3 1236.2,367.6 1235.2,368.6 1233.5,369.2 &#10;&#9;&#9;1227.2,369.2 1221.3,371.4 1217.9,370.6 1215.1,370 1213.7,369.5 1212.9,369.2 1212,368.8 1211.5,368.2 1211.4,367.2 1211.7,365.9 &#10;&#9;&#9;1213.1,364.1 1214.2,362.8 1215.2,361.5 1216.9,357 1218,346.7 1216.5,346 1215.4,345.9 1213.2,346.1 1211.8,346.5 1210.7,346.7 &#10;&#9;&#9;1207.9,350 1203.7,351.2 1202.2,351.4 1199.1,350.4 1193.9,346 1187.2,352.4 1185.4,355.6 1185.2,356.8 1184.2,359.2 1183.3,360.4 &#10;&#9;&#9;1182,361.5 1177.6,362.4 1174.3,361.1 1171.7,365 1168.8,368 1165.4,370.1 1161.8,371.7 1156.8,375.4 1155.2,376.1 1153,376.4 &#10;&#9;&#9;1150.4,377.5 1148.4,374.5 1144.8,372.4 1146.3,369 1146.9,366.3 1147.9,364.5 1149,363.1 1152,361 1152.4,359.8 1152,358.9 &#10;&#9;&#9;1150,357.2 1149.1,355.8 1148.1,349.5 1148.2,348 1147.4,347.2 1145.1,346.7 1144,346 1143.1,344.2 1143.5,343.1 1144.4,342.2 &#10;&#9;&#9;1145.5,341.8 1146.6,341.2 1147.4,340.1 1147.9,338.5 1147.8,337.2 1147,336 1146.1,335.3 1144.8,331.4 1146.1,330 1150.1,329.4 &#10;&#9;&#9;1151.4,329 1155,326.5 1158.9,325.2 1163,322 1168.6,319.9 1177.5,318.4 1176.9,314.9 1180,305.2 1181.8,303 1182.5,298.7 &#10;&#9;&#9;1180.2,295.6 1177.3,293.7 1175.9,291.1 1177.4,289.3 1177.7,288.3 1177.7,287 1177.3,285.9 1176.6,284.8 1173.3,282.2 &#10;&#9;&#9;1172.2,280.8 1172,279.5 1172.5,278.4 1174,276.3 1175.5,273.5 1176.9,268.8 1177.5,268 1178.5,267 1180.1,266.2 1183.4,266.5 &#10;&#9;&#9;1184.7,267 1186.6,268.5 1191.1,273.4 1191.9,274 1192.8,275.2 1194.9,275.3 1196.3,273.4 1199.3,266.4 1199.4,264.5 1199,262.8 &#10;&#9;&#9;1198.4,261.8 1197.9,258.2 1199.5,257.3 1204.5,258.5 1208.7,254.6 1209.9,251.6 1209.9,249.7 1209.7,248.4 1209,247.3 &#10;&#9;&#9;1207.9,246.8 1206.6,246.1 1205.5,245.1 1204.6,243 1204.5,242.1 1204.9,241.3 1208.1,241.5 1209.8,240.3 1209.1,235.6 &#10;&#9;&#9;1209.6,232.3 1210.7,227.1 1214.1,215.8 1224.4,214.9 1228.7,216.2 1231.4,216.1 1232.6,214.3 1237.6,210.7 1239,210 1237.8,213.8 &#10;&#9;&#9;1237.2,214.9 1237.8,215.6 1238.5,216.4 1239.4,216.9 1240.3,217.1 1241.6,217.6 1241.5,218.8 1241,220.4 1240.8,222 1241.4,224.3 &#10;&#9;&#9;1242.5,226.7 1243.9,228.5 1255.6,234.5 1261.2,234.8 1263.4,235.3 &#9;" style="paint-order: stroke; stroke: rgb(23, 23, 23); fill: rgb(250, 250, 250); stroke-width: 3px;"/>
    <path id="Faro_2_" stroke-linecap="round" stroke-linejoin="round" d=" M1200.1,894.6l-0.4-0.5l-0.3-0.7l-0.4-0.8l-2-7.3l-0.6-3.8l0.9-2.5l-1.3-5.5l-1-13.2l-2.3-5.2l0.3-1.9l-0.4-3.7l-0.8-4.1l-0.9-3.1 l-0.7-1l-2.3-1.9l-1-1.1l-1.1-1.7l0,0l-3.3,0.6l-3.8,0l-2.7,1.5l-2.6,2.4l-1.4,1.1l-1.2,0.2l-0.8-0.4l-1.9-0.3l-0.8-0.4l-7-0.1 l-10.4,4.4l-2.3,1.6l-0.9,0.5l-0.7,0.6l-0.8,0l-2.4,1.3l-1.1,0.3l-0.8,0.4l-0.2,1.1l-2,0.2l-2.3,1.5l-0.3,1l-0.7,1.1l-1.7,1 l-3.6,0.7l-1.8,0l-4.3,0.6l-1.7,1.2l-0.5,1.1l-0.2,1.1l0.4,0.7l1,1.4v0.7l-1,0.4l-4.6,2.5l-3,2.4l-2,0.9l-1.4,0l-5-0.6l-2.6,0 l-4.2-1.2l-9.3-7l-2-1l-1.6-1.9l-0.4-1l-0.3-2.4l-0.9-1.9l-3.3-0.9l-2.3,0.3l-1.2,0.7l-1.4-0.2l-1.5,0l-2.8,0.7l-5.1,1.8l-0.5,0.5 l-0.8,1.2l-0.3,1.2l-0.7,1.6l-2.2,1l-2.3,1l-5.7-0.9l-2-0.9l-5.1-3.1l-1.6-0.2l-5.1,0.8l-1.1,0.5l-0.6,0.9l-0.7,0.9l-0.7,0.6 l-1.3-0.2l-0.8-0.7l-3.5-1.6l-5.4-0.2l-1-0.6l-1.2-1.2l-1.1-1.3l-2.1-1.8l-2.1-0.6l-2.6-1.6l-1.6-1.1l-1.1,5.2l-2.3,5.5l-0.7,4 l-3.7,4.2l-2.1,4.2l1,2.6l1,2.9l-1.9,7.3l-3.1,3.2l-2.4,2.2l1.2,4.9l-1.8,3.9l-2,4.6l-5.2,8.2l-0.6,1l-0.7,2.3l-0.9,4.6l2-0.8 l1.4,0.9l1.4,1.5l2,0.7l1.4-0.5l2.6-2.3l1.4-0.5l1.1-0.8l2.4-2.4l2.6,1.1l2.9-2.6l3.1-0.8l2-0.1l1.7-0.8l3.4-2.2l1.6-0.4h8.1 l4.2-4.5l1.7-1.2l2-0.6l6.2-0.5l5.6,1l7,3.9l0.3-0.3l5.7,2.2l5.8-0.7l3.9-1.8l5,1.8l4.5,1.6l10.6-1.5l4.5-0.2l4.2,1.9l5.4,1.2 l9.4,5.3l4.8,4l3,4.4l-0.2-1.4l-0.4-1.1l-1.3-2.1l1.3,0.7l1.7,1.1l1.4,0.2l1.1-1.9l2.3,0.9l8.2,0.1l2.8,0.6l2.1,0.9l1.9,0l4.4-4 l20-13.7l1-1.4l7.7-5.1l2.2-0.8l5.3-3.7l2.9-1.1l2.8-0.3l3,0.1l2.8,0.8l2.2,1.7l1-1.2v-1L1200.1,894.6z M1137.1,924.9l0.2-0.5 l-0.8-0.1l-1.2,0.3h-1.1l-0.2,0.5l0.7,0.2l0.8,0.9l2.1-0.6l-0.6-0.3l-0.6-0.1l0.2-0.3L1137.1,924.9z M1140.4,924.9l-0.3-0.5 l-3.2,3.2l-2.6,1l-6.8-0.9v1.2l3.2,1.1l3.6,0.1l3.4-0.8l2.4-1.6l0.1-0.5l0.8-0.6l-0.4-1.2L1140.4,924.9z M1133.6,928.1l0.6,0.1 l0-0.8l0.2-0.7l-0.7-0.5L1133.6,928.1z" style="stroke: rgb(23, 23, 23); paint-order: stroke; fill: rgb(250, 250, 250); stroke-width: 3px;"/>
    <polygon id="Évora_2_" fill-rule="evenodd" clip-rule="evenodd" stroke-linecap="round" stroke-linejoin="round" points="&#10;&#9;&#9;1108.6,592.7 1109.4,592.4 1109.8,591.4 1109.8,590.3 1110,589.5 1110.1,589.1 1110.2,588.9 1110.3,588.8 1111.9,588.2 &#10;&#9;&#9;1113.9,587.9 1115.1,588.3 1115.7,588.6 1115.9,588.8 1118.8,592 1119.1,593.4 1119.2,595.9 1119.1,597.8 1119.6,598.2 &#10;&#9;&#9;1122.8,598.6 1124,598.4 1125,597.8 1126,597 1126.8,596 1128.9,594.5 1131.8,594 1133.3,595.2 1139.2,603.3 1143,605.9 &#10;&#9;&#9;1144.4,606.1 1145.8,606.1 1146.9,606 1149.7,606.1 1154,604.5 1155.3,603.2 1157.4,600.6 1158.5,600.7 1160.5,601.9 1161.6,602.2 &#10;&#9;&#9;1162.9,601.5 1164.1,601.5 1165.5,601.7 1168.4,602.9 1169.5,602.7 1170.2,602.3 1170.7,601.7 1171.4,600.5 1172.3,599.2 &#10;&#9;&#9;1174.2,597.6 1176.1,597 1178.9,596.4 1180.8,595.6 1182.1,594.7 1182.6,593.6 1182.6,592.4 1182.2,591.5 1181.2,590.2 1183,588.9 &#10;&#9;&#9;1183.7,588.9 1184,588.9 1184.2,588.9 1184.8,590.5 1190.1,592.7 1192.2,594.8 1193.1,596.4 1193.4,599.4 1193.7,600.4 &#10;&#9;&#9;1193.8,602.2 1196.7,604.9 1197.7,608.2 1198,610.4 1200,613.2 1199.2,615.8 1200.2,617.1 1201.9,620.4 1203.1,621.5 1205,622.7 &#10;&#9;&#9;1207.4,622.6 1208,622.9 1210,622.3 1212.6,619.4 1215.5,617 1219.4,615.7 1221.8,615.5 1223.4,616.3 1225,617.4 1225.4,618.5 &#10;&#9;&#9;1225.5,620.8 1225.4,622 1223.4,625 1223.1,625.9 1223,627.5 1223.9,628.6 1224,628.6 1218.1,633.5 1217.9,634.1 1216.7,636.4 &#10;&#9;&#9;1216.3,637.6 1215.4,643.4 1215.1,647.3 1215.2,649 1215.4,650.3 1216,651.4 1216.9,651.9 1217.7,652.5 1218.1,653.8 1217.4,656.1 &#10;&#9;&#9;1211.9,664.2 1209.5,672.7 1208.2,674.7 1209.7,676.9 1209.5,678.8 1208.3,680.7 1206.4,682.7 1208.2,683.7 1211.9,686.4 &#10;&#9;&#9;1225.9,704.5 1226.5,705.5 1227.3,707.7 1227.9,708.7 1228.8,709.7 1231.1,711.4 1231.8,712.1 1237.1,725.8 1238.4,727 &#10;&#9;&#9;1237.8,727.3 1237,727.9 1235.7,728.4 1233.8,728.2 1232.1,727.1 1231,725.9 1229.8,723.5 1229.5,722.3 1228,718.8 1227.8,717.6 &#10;&#9;&#9;1227.4,716.5 1226.6,715.6 1223.2,714 1220.5,711.3 1219.9,710.2 1219.7,708.9 1219.4,707.6 1218.8,706.5 1218.1,705.6 &#10;&#9;&#9;1217.6,704.8 1217.3,704.2 1217.2,703.4 1217.1,702.9 1216.7,702.2 1215.8,702.1 1214.7,702.1 1211.3,703.6 1210.5,703.6 &#10;&#9;&#9;1209.4,704 1205.1,706.3 1200.9,707.5 1200.7,708.6 1200.6,709.7 1200,711.3 1199.1,712.8 1197.7,713.9 1197.2,714.6 1195.1,715.7 &#10;&#9;&#9;1194.9,716.3 1191.1,718.3 1188.9,720.6 1187.1,723.4 1186.9,724.5 1185.5,724.9 1179.5,724.7 1176.6,723.7 1174,723.2 1165.3,723 &#10;&#9;&#9;1163.4,722.4 1155,717.6 1151.6,716.4 1144.9,715.7 1133.7,710.6 1130.7,707 1126.8,705.5 1125.7,705.1 1124.2,705 1121.2,706.5 &#10;&#9;&#9;1120.1,706.5 1119,706.2 1117.6,705.1 1116,703.4 1115.3,703.1 1113.4,702.8 1110.4,703.1 1100.7,703 1100.2,704.5 1095.2,700.6 &#10;&#9;&#9;1092.7,699.7 1091.5,699.7 1090.3,699.5 1089,699.1 1086.3,697.5 1084.5,696 1081.6,694.9 1080.8,694.4 1080.8,693.2 1082.9,689.3 &#10;&#9;&#9;1083.4,686.4 1082.8,685 1081.8,684.3 1079.9,683.4 1079.3,682.5 1079.3,681.6 1079.8,681 1079.9,680 1078.1,675.4 1078,674.4 &#10;&#9;&#9;1077.9,673.9 1077.8,673.7 1077.8,673.5 1077.1,672.6 1075.4,670.8 1072.9,667.6 1071.7,667.1 1069.2,667.7 1066.2,669.6 &#10;&#9;&#9;1064.3,670.3 1060.5,670.5 1058.9,669.8 1057.7,669 1056.9,668.2 1056.5,667.2 1055.6,666.6 1054.3,666.5 1053.8,667.1 1054,668 &#10;&#9;&#9;1054.3,669.1 1054.1,669.9 1053.3,670.4 1050.1,669.4 1046.2,668.8 1041.1,665.7 1037.2,665.2 1036.4,661.1 1036,659.8 &#10;&#9;&#9;1035.4,658.7 1035.3,657.1 1035.4,655.7 1040.2,649.6 1051.3,641.8 1053.4,639.3 1054.4,637.7 1054.7,635.6 1054.6,634.5 &#10;&#9;&#9;1056,631.8 1055.6,630 1054.8,629.5 1049.3,628.5 1055.6,623.1 1061.5,622 1062.9,621 1065.6,618.2 1067,617.8 1068.5,618 &#10;&#9;&#9;1069.5,617.7 1070.2,617.3 1070.8,616.6 1071.4,615.8 1071.7,614.8 1072,614 1072.9,613.8 1075.2,614.8 1076.9,614.9 1078.4,614.3 &#10;&#9;&#9;1079.7,614.3 1080.5,614.5 1081.2,614.1 1081.5,613.3 1082,612.5 1082.9,612.5 1083.8,613.2 1087.4,616.9 1088.5,617.8 &#10;&#9;&#9;1092.7,618.7 1094.1,619.2 1094.9,620 1095.4,621.1 1095.6,622.1 1096,622.8 1096.8,622.9 1097.4,622.7 1098.1,623.1 1098.8,625.2 &#10;&#9;&#9;1099.4,626.1 1101.5,627.2 1103.8,625 1104.5,622.7 1104.3,621.2 1103.5,620.3 1102.4,619.8 1101.3,619.6 1099.2,617.3 &#10;&#9;&#9;1098.4,615.8 1098.4,614.5 1099.1,611.6 1098.4,610.3 1097.9,609.8 1096.3,609.5 1089.5,606.4 1088.5,605.8 1087.5,604.9 &#10;&#9;&#9;1087.2,603.6 1087.6,602.5 1088.4,601.5 1089.2,600.5 1089.7,599 1090,597.2 1090.1,594.4 1090.5,592.9 1091.2,591.8 1091.8,591.6 &#10;&#9;&#9;1093.6,591.5 1094.4,590.9 1095.6,588.8 1098.2,586.4 1100.4,585.5 1101.3,584.9 1102.3,584.6 1106,584.4 1108,585.2 1108,586.1 &#10;&#9;&#9;1107.6,587.1 1107.1,589.4 1107.7,591.7 &#9;" style="paint-order: stroke; stroke: rgb(23, 23, 23); fill: rgb(250, 250, 250); stroke-width: 3px;"/>
    <path id="Coimbra_2_" stroke-linecap="round" stroke-linejoin="round" d=" M1156.5,398.4l-0.2-1.2l-0.6-1.8l-3.6-2.5l-2.2-2.7l-1.4-1.2l-0.7-1.2l-0.7-2.1l0.4-1.3l2.9-6.8l-2-3l-3.6-2.1l1.5-3.4l0.7-2.7 l0.9-1.8l1.1-1.4l3-2.1l0.4-1.2l-0.4-0.9l-1.9-1.7l-0.9-1.3l-1.1-6.3l0.1-1.5l-0.8-0.8l-2.3-0.5l-1.1-0.7l-0.9-1.7l0.4-1.1l0.9-0.8 l1.2-0.4l1.1-0.6l0.8-1.1l0.5-1.6l-0.2-1.2l-0.7-1.2l-0.9-0.7l-1.4-3.9l-2.7,0.7l-1.4,0.9l-1.5,1.7l-4.5,3.4l-3.2,5l-2.4,1.3 l-5.8,4.1l-7.2,3l-10,7.4l-7.7-1.2l-5.6,1.1l-0.6,0.5l-0.3,0.7l-0.1,0.8l-0.3,0.8l-0.4,0.5l-0.8,0l-1-1l-2.1-1l-2.1-1.8l-3.1-2.2 l-4.1-1.1l-1.3-1.1l-1.5-0.6l-1.2,1.3l0.1,1.5l-1.6,2.1l-2.9-0.2l-0.9,0.3l-1.1,1.3l-0.7,1.4l-3,3.9l-0.6,1.6l-1.2,1.2l-1,0.7 l-7.7-0.8l-0.9-1.1l-0.2-1.1l0-1.6l0.4-1.8l1.1-2.6l0.7-1.1l0.7-0.7l0.4-0.3l0.6-0.5l0.3-0.5l0.7-2.6l0.2-1.1l-0.2-1.2l-1.5-2.9 l-0.7-3.5l-1.5,0.1l-2.1,0.9l-2.2,1.4l-1.2,0.5l-1.1-0.3l-0.9-1.2l-0.4-3.1l-0.1-1.7l0.8-4.2l-5.1-3.5l-2.9,4.4l-0.5,2.8l-1,1.8 l-4.4-0.5l-14.6-15l-0.3-0.4l-1.4,8.4l-8.8,34.5l-4,8.1l-1.7,4.9l0.2,3.7l1.3,2.5l2.3,1.5l6.1,0.8l2.3,0.9l2,1.5l2.1,2v1.3 l-5.3-0.2l-2.2-1l-1.5-2.3l-2,2.5l-4.5,13.4l0,0l0.8,0.3l3.4,1.6l1.2,0.8l1.9,0.9l4.3,0.9l1.3-0.2l1.6-1.2l3.3-1.4l6.8,0.7l2.6,0.2 l2.8,0.7l1.6,1l2.3,2l1.2,1.8l0.4,0.3l0.9,0.3l1.4-0.1l0.7-0.4l0.4-0.3l2-3.4l0.9-0.7l1-0.5l1-0.1l0.8,0.1l0.9,0.4l0.8,1l0.9,3.9 l0.2,1.6v2.8l0.2,1.3l0.5,0.9l0.6,0.6l0.9-0.8l2.4-3l3.5-2.1l4.3-3.7l2.7,0.2l0.3-0.9l1.2,0.2l0.9,0.8l1.8,3.7l1.3,3.3l0.6,2.3 l-0.3,1.4l-0.7,1.1l-1,0.7l-0.6,0.6l0.9,0.3l1.1,0l5.4-2.1l4.6-5.3l1.4-0.2l2.1,1l1.1-0.1l0.8-0.8l0.3-1.4l-0.6-1l-1.6-1.5 l-0.4-0.6l-0.2-1.3l-0.1-1l2-3.2l5.6-5.1l4,1.5l4.1-5.4l1.7,1.1l0.8,0.7l0.8,1.3l0.5,1.1l-0.9,4.9l0.4,3l5.5,8.9l-1.5,1.2l-0.6,0.7 l-0.6,1.8l0.4,0.9l0.2,0.7l0.1,0.3l-0.4,2.1l2.1-2.1l0.3-1l0.9-0.7l0.6-0.3l1.8-0.3l1.4-1.7l3-0.8l2.2,0.1l0.4-0.7l0.2-0.8l0.2-1 l0.7-0.2l1.9-0.2l0.7-0.8l0.7-0.3l1.2-0.3l0.9,0.1l0.8,0.3l0.6,0.3l0.7-0.5l1.7-2.6l1-0.6l1-0.2l2.5-0.1l1.3-0.9l0.2-0.9l-0.6-2.4 l0.5-1.4l1.6-1.8l3.1-1.6l1.9-0.3l1.6-0.1l1.2,0.3l1.2,0.5l2.6,2.2l0.4-3.5l-0.2-2.9l0.7-1l0.6-0.4l0.7,0.1l0.2,0.6l0.5,0.6 l0.9,0.3l1.4-0.2l2.6-1.8l1.2-1.2l0.5-0.9l0.1-1L1156.5,398.4z M1012.1,396.2l1.5,0.1l2.7-1.3l-4.2-2.2l-1.5-0.5l-0.7,0.3l-0.5-0.3 l0.5,1.2l0.3,1L1012.1,396.2z" style="paint-order: stroke; stroke: rgb(23, 23, 23); fill: rgb(250, 250, 250); stroke-width: 3px;"/>
    <polygon id="Castelo_Branco_2_" fill-rule="evenodd" clip-rule="evenodd" stroke-linecap="round" stroke-linejoin="round" points="&#10;&#9;&#9;1221.3,371.4 1227.2,369.2 1233.5,369.2 1235.2,368.6 1236.2,367.6 1236.5,366.3 1237.1,364.9 1237.9,363.7 1239.3,362.4 &#10;&#9;&#9;1240.2,362.7 1240.9,363.5 1241.4,364.7 1242.7,367 1243.9,368.1 1246.9,368.7 1249.9,368.5 1252.1,367.9 1253.4,368.1 &#10;&#9;&#9;1254.2,368.2 1257.5,369.9 1259.6,371.3 1260.9,372.8 1261.5,373.5 1261.5,373.5 1259.9,373.8 1254.2,377.5 1251.8,378.6 &#10;&#9;&#9;1250.6,380.2 1249.3,384.2 1248.2,386.3 1249.3,388.8 1250.2,394.7 1251.8,397 1253.4,397.5 1256.9,398 1258.3,398.5 1259.7,399.8 &#10;&#9;&#9;1261.5,402.7 1264.5,406.4 1269.8,416 1267.5,419.8 1266.9,421.7 1267.1,423.5 1266.6,425.1 1265.8,429.3 1265.4,430 1264.2,431 &#10;&#9;&#9;1263.8,431.8 1263.8,432.7 1264.3,434.5 1264.2,435.3 1264,436.9 1263.9,439.7 1263.4,441.4 1260.1,446.4 1258.9,447.2 &#10;&#9;&#9;1255.8,448.4 1254.8,449.3 1253.8,451.6 1254,453.5 1254.6,455.1 1254.8,456.5 1254.3,458.1 1252.7,461 1252.1,462.6 1252.1,464.2 &#10;&#9;&#9;1252.5,465.3 1252.6,466.6 1251.1,470.3 1249.1,471.1 1229.7,473.5 1225.6,473.3 1222.7,471.6 1220.4,472.3 1215.2,472.1 &#10;&#9;&#9;1212.7,472.6 1210.5,473.6 1208.7,474.1 1180.2,472.7 1180.3,473.2 1180.3,473.2 1179,472.6 1176.4,473.6 1174.1,475.1 &#10;&#9;&#9;1172.4,476.9 1169.4,479.2 1167.2,478.8 1164.9,477.6 1161.9,477.4 1159.7,479 1158.1,481.8 1156.8,484.5 1156,485.7 1153.4,486.7 &#10;&#9;&#9;1151.2,489 1149.3,491.7 1147.4,493.8 1146.2,492.1 1145.2,489.1 1144.7,487.8 1142,483.5 1139.2,480.3 1136.8,478.8 1134.8,477.1 &#10;&#9;&#9;1132.1,476.2 1130.5,476 1129.1,475.6 1128.2,475.1 1127.8,473.6 1128,471 1127.9,468.4 1127.7,467.1 1127.6,465.8 1127.4,464.6 &#10;&#9;&#9;1127,463.5 1126.2,462.8 1123,462.7 1118.8,461.2 1116.1,461.7 1115.4,463 1113.9,471.8 1112.8,473.5 1112.2,475.7 1112.3,477.6 &#10;&#9;&#9;1113.2,480.2 1113.4,481.3 1113.5,482.3 1110.6,483.3 1106,483.8 1103.2,483.7 1099.8,481.3 1092.5,478.4 1091.3,476.2 &#10;&#9;&#9;1090.7,470.1 1090.7,466.8 1091.7,465.3 1091.4,462.1 1091.5,461.3 1091.5,460.3 1091.3,459.5 1090.9,458.6 1090,457.6 &#10;&#9;&#9;1088.5,456.9 1086.7,456.5 1085.5,455.6 1084.7,453 1084,451 1084,450.2 1085,448.7 1085.8,448 1085.9,447 1085.8,446.1 &#10;&#9;&#9;1086.6,445.1 1087.3,444.4 1093.1,442.5 1094.4,442.7 1095.2,442 1096.3,440.5 1097.4,439.2 1098.7,438.6 1099.8,438.4 1101,437.5 &#10;&#9;&#9;1102.3,436.3 1104.9,431.2 1107,429.1 1107.3,428 1108.3,427.3 1108.9,427 1110.7,426.8 1112.1,425.1 1115.1,424.3 1117.3,424.3 &#10;&#9;&#9;1117.8,423.7 1118,422.8 1118.2,421.8 1118.9,421.6 1120.8,421.4 1121.5,420.7 1122.2,420.3 1123.3,420 1124.2,420.1 1125,420.4 &#10;&#9;&#9;1125.6,420.7 1126.3,420.3 1128,417.7 1129,417.1 1130,416.9 1132.5,416.8 1133.8,416 1134,415 1133.4,412.7 1133.9,411.3 &#10;&#9;&#9;1135.5,409.5 1138.6,407.9 1140.5,407.6 1142.1,407.6 1143.3,407.9 1144.5,408.4 1147.1,410.6 1147.5,407.1 1147.3,404.2 &#10;&#9;&#9;1147.9,403.2 1148.6,402.8 1149.2,402.9 1149.4,403.5 1149.9,404.2 1150.8,404.4 1152.2,404.2 1154.8,402.4 1156,401.3 &#10;&#9;&#9;1156.5,400.4 1156.6,399.4 1156.5,398.4 1156.4,397.2 1155.7,395.4 1152.1,392.9 1149.9,390.2 1148.5,389 1147.8,387.7 &#10;&#9;&#9;1147.1,385.6 1147.6,384.3 1150.4,377.5 1153,376.4 1155.2,376.1 1156.8,375.4 1161.8,371.7 1165.4,370.1 1168.8,368 1171.7,365 &#10;&#9;&#9;1174.3,361.1 1177.6,362.4 1182,361.5 1183.3,360.4 1184.2,359.2 1185.2,356.8 1185.4,355.6 1187.2,352.4 1193.9,346 1199.1,350.4 &#10;&#9;&#9;1202.2,351.4 1203.7,351.2 1207.9,350 1210.7,346.7 1211.8,346.5 1213.2,346.1 1215.4,345.9 1216.5,346 1218,346.7 1216.9,357 &#10;&#9;&#9;1215.2,361.5 1214.2,362.8 1213.1,364.1 1211.7,365.9 1211.4,367.2 1211.5,368.2 1212,368.8 1212.9,369.2 1213.7,369.5 1215.1,370 &#10;&#9;&#9;1217.9,370.6 &#9;" style="paint-order: stroke; stroke: rgb(23, 23, 23); fill: rgb(250, 250, 250); stroke-width: 3px;"/>
    <polygon id="Bragança_2_" fill-rule="evenodd" clip-rule="evenodd" stroke="#171717" stroke-linecap="round" stroke-linejoin="round" points="&#10;&#9;&#9;1247.1,77.5 1251.8,75.5 1254.9,73.2 1256.1,73.8 1257.9,74.7 1261.1,77.3 1264.8,78.1 1273.1,77.4 1276.2,75.4 1277,70.1 &#10;&#9;&#9;1281.1,70.8 1285.9,78.3 1289.9,79.5 1299.3,79.1 1303.8,77.7 1305.5,73.9 1308.8,75.3 1310.5,77.4 1311.1,80.4 1310,88 1311,89.3 &#10;&#9;&#9;1313.4,89.6 1316.8,90.8 1315.3,94.1 1312.1,108.6 1311.5,110.3 1310.6,111.8 1309.8,113.4 1310.2,115 1311.1,116.5 1311.7,118.2 &#10;&#9;&#9;1312,121.4 1312.7,124.9 1314.5,127.7 1318.2,129.2 1319.6,128.8 1321.6,127.8 1323.4,126.5 1324.3,125.4 1325.2,124.6 1327,124.7 &#10;&#9;&#9;1337.7,126.9 1344.2,129.3 1350.1,133.2 1355.7,139.1 1357.6,141.7 1358.9,143.4 1352.6,152.7 1349.2,156.4 1348.3,158.1 &#10;&#9;&#9;1348.4,159.5 1348.8,160.7 1348.7,161.9 1343.7,170 1343.7,171.5 1339.5,171.8 1337.7,172.6 1336,173.9 1336.4,174 1336.5,175.1 &#10;&#9;&#9;1336.3,176.5 1336,177.4 1335.5,177.6 1333.8,177.3 1333.3,177.4 1329.1,184.2 1324.9,188.6 1322.4,190.5 1320.6,192 1312.8,195.4 &#10;&#9;&#9;1311.6,196.2 1303,196.4 1300.6,196.8 1299.1,198.5 1294.4,205.6 1293.4,208.2 1292.6,209.7 1288,213.7 1286.3,215.9 1285.8,217.1 &#10;&#9;&#9;1286.1,221.5 1285,224.7 1279.8,232.5 1278,234.3 1274.3,234.6 1266.2,233.9 1263.5,235.3 1263.4,235.3 1261.2,234.8 1255.6,234.5 &#10;&#9;&#9;1243.9,228.5 1242.5,226.7 1241.4,224.3 1240.8,222 1241,220.4 1241.5,218.8 1241.6,217.6 1240.3,217.1 1239.4,216.9 1238.5,216.4 &#10;&#9;&#9;1237.8,215.6 1237.2,214.9 1237.8,213.8 1239,210 1237.6,210.7 1232.6,214.3 1231.4,216.1 1228.7,216.2 1224.4,214.9 1214.1,215.8 &#10;&#9;&#9;1210.7,216.1 1206.3,214.6 1204.6,213.1 1200.7,207.3 1198.7,205.9 1196.7,205.8 1197.5,203.5 1197.7,202.7 1198.3,201.7 &#10;&#9;&#9;1199.5,201.1 1201.4,200.8 1201.9,200.5 1201.7,199.6 1201.6,198.4 1201.7,196.9 1202.2,194.7 1203.4,193.1 1204.7,191.6 &#10;&#9;&#9;1205,190.9 1204.7,189.8 1205,188 1207.3,185.5 1211.9,184 1208.8,182.1 1207.6,180.7 1206.7,178.3 1205.9,174.8 1206,166.1 &#10;&#9;&#9;1210.3,162.8 1211.5,162.3 1212.6,161.6 1213.8,160.1 1214.8,157.3 1216.3,154.3 1217.5,152.8 1218.8,152.3 1220.1,152.2 &#10;&#9;&#9;1221.2,151.9 1222.2,151.4 1222.6,150.5 1222.4,149.4 1221.9,148.2 1221.2,147 1220.6,145.8 1220.1,144.4 1219.9,142.1 &#10;&#9;&#9;1220.5,137.4 1224.8,122.6 1228.1,115.6 1229.2,114.5 1230,114.1 1230.7,113.1 1231,112.1 1231,109.6 1230.9,108.2 1228.5,104.8 &#10;&#9;&#9;1227.3,101.6 1226.9,99.9 1226.6,96.7 1226.9,93.2 1227.2,91.3 1226.4,87.8 1226.2,86.9 1227.7,84.7 1228,81.9 1227.1,76.2 &#10;&#9;&#9;1227.4,73.7 1228.4,72.6 1230.4,71.1 1232.7,69.8 1234.6,69.5 1238.9,72.1 1242.9,75.6 &#9;" style="paint-order: stroke; fill: rgb(250, 250, 250); stroke-width: 3px;"/>
    <polygon id="Braga_5_" fill-rule="evenodd" clip-rule="evenodd" stroke="#171717" stroke-linecap="round" stroke-linejoin="round" points="&#10;&#9;&#9;1107.8,121.9 1109.5,121.6 1110.3,121.3 1111.3,121.1 1112.3,121.1 1113.5,121.4 1114.4,121.2 1117,120 1117.8,120.1 1118.7,120.5 &#10;&#9;&#9;1122.1,122.7 1122.8,123.3 1123.2,124.4 1122.6,126.6 1122.3,128.3 1121.8,136.2 1124.5,137.3 1126,137.7 1127.3,138.3 &#10;&#9;&#9;1128.5,138.8 1133.7,139.9 1135.3,140 1139.3,138.8 1142,135.7 1143.3,136.5 1144,137.2 1146.3,141.2 1146,143.3 1140.7,151.3 &#10;&#9;&#9;1139.1,153.1 1136.6,154.2 1136.1,154.7 1135.5,156.8 1134.1,158.2 1133,157.8 1132.4,157.9 1131.7,158.4 1130.5,160.1 &#10;&#9;&#9;1129.3,164.3 1129.9,165.6 1129.7,166.5 1129.3,167.7 1127.4,171 1127,172.2 1126.4,172.7 1125.9,172.9 1125.6,173.5 1126,174.7 &#10;&#9;&#9;1126,175.6 1124.8,178.7 1124.4,180.5 1124.1,181.2 1123.6,182.1 1123,182.7 1122.3,183.2 1121.4,184 1120.9,184.7 1120.2,185.3 &#10;&#9;&#9;1119.2,186.2 1118.2,186.6 1116.8,186.7 1115.3,185.4 1112.5,183.8 1111,184.2 1106.8,182.3 1102.1,178.8 1102.4,177.2 &#10;&#9;&#9;1101.8,176.1 1099.1,173.3 1092.6,170.9 1090.6,173.9 1088,175.9 1083.9,177.8 1083,178.1 1079.8,179.3 1079,179.3 1077.2,178 &#10;&#9;&#9;1076.1,177.6 1070.7,178.4 1066.6,179.4 1063.3,179 1062.4,178.3 1061.4,177.7 1059.7,177.7 1057.5,178.3 1055,179.8 1053.9,180.5 &#10;&#9;&#9;1053,181.5 1051.9,181.7 1050.9,182.1 1043.4,182.1 1042.1,182.3 1041.7,182.4 1040.7,181.8 1040,180.6 1039.4,178.2 1039.3,176.8 &#10;&#9;&#9;1040.2,175.5 1041.5,175.1 1042.3,174.7 1042.7,173.8 1042.2,172.7 1040.9,171.5 1039.4,171.2 1037.6,170 1035.3,167.7 &#10;&#9;&#9;1034.5,166.7 1033.4,165.7 1032.1,165.2 1028.7,165.1 1025.3,163.5 1022.2,161.6 1019.1,161.5 1019.1,161.4 1017.6,157.4 &#10;&#9;&#9;1017.3,153.7 1016.7,151.3 1016.4,148.3 1014.7,142.9 1014.1,139 1013.2,136.1 1013.2,135 1013.8,135.1 1016.4,135.5 1017.7,135.3 &#10;&#9;&#9;1027.3,131.8 1034.1,131.5 1035.3,131.2 1036.3,130.4 1036.7,129.6 1037.4,129.2 1038.5,129.9 1042.4,131.3 1045,131.8 &#10;&#9;&#9;1046.5,132.6 1047.7,132.9 1048.6,133.1 1050.9,128.9 1050.3,127 1050.6,125.9 1051.2,124.7 1052.4,123.6 1052.8,122.3 1053.1,121 &#10;&#9;&#9;1053.3,118.3 1053.6,117 1054,115.7 1055.1,114.5 1055.7,114 1056.8,113.8 1057.9,114 1058.9,114.1 1061.2,113.2 1063.5,111.2 &#10;&#9;&#9;1064.5,110.5 1066.4,109.8 1068.3,109.3 1079.9,108.8 1083.1,107.6 1095.7,100.7 1097.3,100.7 1097.8,100.5 1097.9,100.5 &#10;&#9;&#9;1097.8,100.9 1109.2,101.6 1114.9,99.9 1115.3,100.3 1115.3,101.2 1115.1,102.2 1114.4,103.3 1113.7,104.5 1112.8,109.6 &#10;&#9;&#9;1111.5,111.8 1110.4,115.6 1109.7,117.2 1109,118.3 1106,121.8 &#9;" style="paint-order: stroke; fill: rgb(250, 250, 250); stroke-width: 3px;"/>
    <polygon id="Beja_2_" fill-rule="evenodd" clip-rule="evenodd" stroke-linecap="round" stroke-linejoin="round" points="&#10;&#9;&#9;1235.7,728.4 1237,727.9 1237.8,727.3 1238.4,727 1240.2,728.7 1242.2,728.7 1245.5,728 1248.8,726.6 1250.4,724.3 1251.1,724.6 &#10;&#9;&#9;1251.5,724.6 1254.9,723.5 1258.6,723.2 1260.4,724.5 1260.8,724.8 1259.5,729.6 1258.4,732.1 1256.7,737.7 1254.2,742.8 &#10;&#9;&#9;1253,747.9 1251.8,750 1250.7,754.1 1247.3,754.5 1239.9,751.4 1237.6,751.1 1236.4,752.4 1235.1,755.9 1233.7,757.7 1232.7,758.4 &#10;&#9;&#9;1231,758.9 1229.4,759.8 1227.7,759.5 1226.1,759 1224.3,758.9 1222.9,759.9 1218.7,760.7 1217.8,761.7 1217.9,763.1 1218.3,764.7 &#10;&#9;&#9;1218.3,766.4 1217.6,769.3 1214.7,777.2 1213.3,782.9 1209.6,789.4 1197.5,799.6 1195.1,803 1193.4,808.1 1192.2,816.1 &#10;&#9;&#9;1191.5,818.6 1190.6,820 1187.1,823.7 1185.8,824.5 1186.2,825.6 1186.1,826.4 1185.8,827.1 1185.6,828 1184.2,829.6 1183.8,830.3 &#10;&#9;&#9;1183.9,832 1184.1,832.2 1184.6,832.2 1185.3,834.5 1185.4,835.6 1185.7,836.6 1185.8,836.7 1185.8,836.7 1182.5,837.4 &#10;&#9;&#9;1178.7,837.4 1176,838.9 1173.3,841.3 1171.9,842.4 1170.7,842.6 1169.9,842.2 1168.1,841.9 1167.3,841.5 1160.3,841.4 1150,845.8 &#10;&#9;&#9;1147.6,847.4 1146.7,847.9 1146,848.5 1145.1,848.6 1142.7,849.8 1141.7,850.1 1140.9,850.6 1140.7,851.7 1138.7,851.9 &#10;&#9;&#9;1136.4,853.4 1136.1,854.4 1135.4,855.5 1133.7,856.6 1130,857.2 1128.3,857.2 1123.9,857.9 1122.2,859.1 1121.7,860.2 &#10;&#9;&#9;1121.4,861.3 1121.8,862 1122.8,863.4 1122.8,864.1 1121.9,864.5 1117.3,867 1114.3,869.4 1112.2,870.3 1110.8,870.3 1105.9,869.8 &#10;&#9;&#9;1103.3,869.8 1099,868.6 1089.7,861.6 1087.7,860.6 1086.1,858.7 1085.7,857.7 1085.4,855.3 1084.5,853.4 1081.2,852.5 &#10;&#9;&#9;1078.8,852.8 1077.6,853.5 1076.3,853.3 1074.8,853.3 1072,854 1066.8,855.8 1066.3,856.3 1065.5,857.5 1065.2,858.7 1064.5,860.2 &#10;&#9;&#9;1062.3,861.2 1060,862.2 1054.3,861.3 1052.3,860.4 1047.2,857.4 1045.7,857.1 1040.5,858 1039.5,858.4 1038.8,859.4 1038.1,860.2 &#10;&#9;&#9;1037.4,860.8 1036.1,860.6 1035.3,859.9 1031.8,858.3 1026.5,858.1 1025.4,857.4 1024.2,856.3 1023,855 1021,853.2 1018.9,852.6 &#10;&#9;&#9;1016.3,851 1014.8,849.9 1015.2,847.7 1016.1,843.2 1016.4,835.6 1015.6,831.6 1014.3,829 1012.6,826.9 1012.3,824.7 1014.1,817.3 &#10;&#9;&#9;1014.7,812.8 1015.9,808.5 1017.6,807.6 1021.4,807 1022.1,802.9 1022.1,802.3 1020.8,803.4 1017.9,804.2 1014.6,804.3 &#10;&#9;&#9;1013.5,801.3 1014.5,792.8 1015.6,786.9 1016.9,788.1 1017.6,789.2 1018.3,789.7 1019.2,789.7 1020.2,789.2 1021.3,788.6 &#10;&#9;&#9;1022.2,788.3 1024.5,789.1 1025.4,790.3 1025.9,791.2 1029.3,795.4 1030.5,797.7 1031.2,798.5 1031.9,798.4 1032.5,797.6 &#10;&#9;&#9;1032.9,796.8 1033.7,796.3 1034.8,796.5 1035.8,797.1 1036.8,797.9 1039.1,798.9 1040.6,799 1042.8,798.2 1043.6,797.1 &#10;&#9;&#9;1043.8,795.7 1043.9,794.5 1045.1,790.7 1045.8,789.5 1048.1,787.2 1048.7,786 1049,784.8 1050.3,783.6 1052.6,782.5 1064.4,780.2 &#10;&#9;&#9;1070.2,781.3 1073.7,781.3 1074.2,781.4 1078.1,783.5 1080,778.9 1080.5,777.7 1082,773.2 1082.9,765.8 1082.8,761 1081.5,757.4 &#10;&#9;&#9;1080.7,755.7 1078.9,754.3 1077.2,754.1 1075.7,753.8 1074,753 1072,750.6 1069.5,748.6 1068.8,746.9 1068.6,746 1068.5,745.1 &#10;&#9;&#9;1068.9,744 1069.1,743 1069.5,742 1069.9,740.8 1070.6,739.3 1071.5,739.2 1072.2,739.6 1073,739.9 1073.6,739.8 1074.1,739.1 &#10;&#9;&#9;1074.4,738.5 1075,737 1075.2,736.1 1075.2,735.3 1075.3,734.5 1075.6,733.8 1076.5,733.4 1077.3,732.7 1078.2,732.4 1079.5,733 &#10;&#9;&#9;1080.5,733.8 1081.6,734.1 1082.5,733.6 1083.3,730.7 1083.5,729.3 1083.9,728.2 1084.9,727.5 1089.6,727.7 1090.5,726.4 &#10;&#9;&#9;1091.1,724.6 1092.1,724 1096.7,722.8 1099.1,721.7 1103.7,720.3 1104.3,718.4 1104.3,717.3 1104.4,715.7 1103.4,711.5 &#10;&#9;&#9;1100.2,704.5 1100.7,703 1110.4,703.1 1113.4,702.8 1115.3,703.1 1116,703.4 1117.6,705.1 1119,706.2 1120.1,706.5 1121.2,706.5 &#10;&#9;&#9;1124.2,705 1125.7,705.1 1126.8,705.5 1130.7,707 1133.7,710.6 1144.9,715.7 1151.6,716.4 1155,717.6 1163.4,722.4 1165.3,723 &#10;&#9;&#9;1174,723.2 1176.6,723.7 1179.5,724.7 1185.5,724.9 1186.9,724.5 1187.1,723.4 1188.9,720.6 1191.1,718.3 1194.9,716.3 &#10;&#9;&#9;1195.1,715.7 1197.2,714.6 1197.7,713.9 1199.1,712.8 1200,711.3 1200.6,709.7 1200.7,708.6 1200.9,707.5 1205.1,706.3 1209.4,704 &#10;&#9;&#9;1210.5,703.6 1211.3,703.6 1214.7,702.1 1215.8,702.1 1216.7,702.2 1217.1,702.9 1217.2,703.4 1217.3,704.2 1217.6,704.8 &#10;&#9;&#9;1218.1,705.6 1218.8,706.5 1219.4,707.6 1219.7,708.9 1219.9,710.2 1220.5,711.3 1223.2,714 1226.6,715.6 1227.4,716.5 &#10;&#9;&#9;1227.8,717.6 1228,718.8 1229.5,722.3 1229.8,723.5 1231,725.9 1232.1,727.1 1233.8,728.2 &#9;" style="paint-order: stroke; stroke: rgb(23, 23, 23); fill: rgb(250, 250, 250); stroke-width: 3px;"/>
    <polygon id="Aveiro_2_" fill-rule="evenodd" clip-rule="evenodd" stroke-linecap="round" stroke-linejoin="round" points="&#10;&#9;&#9;1103.5,246.9 1105.2,246.6 1106.1,244.5 1106.5,243.9 1106.9,243.4 1108.6,241.9 1109.5,241.9 1110,242.6 1110.1,243.3 &#10;&#9;&#9;1110.1,243.8 1110,244 1109.8,244.9 1105.6,251 1105,252.9 1104.5,255 1104.7,256.1 1105.3,258.5 1106,263 1107.1,266.1 &#10;&#9;&#9;1107,268.2 1106.3,269.4 1105.2,269.7 1104,269.6 1102.9,269.1 1101.9,268.3 1100.7,267.9 1099.2,267.9 1096.8,269.1 1095.2,269.3 &#10;&#9;&#9;1093.7,269.1 1092.6,268.6 1088.6,269 1090.1,274.4 1089.9,275.4 1088.7,277.4 1086,283.2 1082.9,286.7 1079.9,289.2 1078.6,291.4 &#10;&#9;&#9;1078.5,292.2 1078.6,293 1078.8,294.1 1079.4,295.1 1081.2,297.2 1082,298.6 1082.4,299.8 1082.5,304.7 1083.5,307.1 1084.1,307.5 &#10;&#9;&#9;1086.5,308.5 1088.7,310.3 1083.3,312.5 1082.4,313.4 1081.7,314.7 1081.7,315.9 1083.2,319.7 1084,322.8 1084.8,323.9 &#10;&#9;&#9;1085.7,324.8 1086.5,325.8 1088.1,328.5 1080.8,331.4 1077.8,333.7 1077.6,334.7 1077.8,335.8 1079.2,338.3 1079.1,340.5 &#10;&#9;&#9;1078.5,342 1074.7,347.9 1075.3,353.2 1074.1,354.5 1074.2,355.9 1072.6,358 1069.7,357.8 1068.8,358.1 1067.7,359.4 1066.9,360.8 &#10;&#9;&#9;1063.9,364.7 1063.3,366.3 1062.1,367.5 1061.1,368.2 1053.4,367.4 1052.5,366.3 1052.3,365.2 1052.3,363.6 1052.7,361.8 &#10;&#9;&#9;1053.8,359.2 1054.5,358.1 1055.2,357.4 1055.6,357.1 1056.2,356.6 1056.4,356.1 1057.1,353.5 1057.2,352.5 1057,351.2 &#10;&#9;&#9;1055.5,348.3 1054.8,344.9 1053.3,345 1051.2,346 1049.1,347.4 1047.9,347.9 1046.8,347.6 1045.8,346.4 1045.4,343.3 1045.3,341.5 &#10;&#9;&#9;1046.1,337.3 1041.1,333.8 1038.2,338.2 1037.7,341 1036.7,342.9 1032.3,342.3 1017.7,327.4 1017.4,327 1017.8,324.6 1020.3,316.6 &#10;&#9;&#9;1022,306.5 1022.3,305.9 1023.1,305.4 1023.2,309.1 1023.1,310.3 1025.7,305.8 1027.6,304.3 1029.5,305.4 1030.3,305.4 &#10;&#9;&#9;1030.3,304.3 1030,303.9 1029.5,302.9 1029.2,301.8 1029.5,300.8 1030.8,300 1031.5,300.5 1032.1,301.5 1032.7,302 1034,301.4 &#10;&#9;&#9;1035.1,300.1 1036.7,297.2 1034.6,295.9 1033.5,293.9 1033.8,292 1036.3,291.1 1039.3,290.8 1041.7,289.9 1043.8,288.5 &#10;&#9;&#9;1045.8,286.5 1043.6,286.6 1040.3,288.3 1037.5,288.9 1037,289.2 1036.2,289.2 1033.2,287.9 1032.2,286.5 1031.2,281.7 &#10;&#9;&#9;1036.2,274.6 1034.9,270.9 1034.7,273.7 1033.9,276.1 1032.9,276.8 1032.2,274.5 1030.4,278 1028.9,282.6 1028,287.4 1027.7,291.8 &#10;&#9;&#9;1027.1,294.6 1025.7,298.6 1023.9,302.4 1022.3,304.3 1034.9,244.8 1034.9,240.8 1035,240.8 1036.2,240.5 1042,239.7 1044.2,241.1 &#10;&#9;&#9;1048.4,239.6 1050.4,238.1 1052,238.1 1053.2,238.8 1054.3,239.8 1056.2,240.8 1057.5,240.7 1058.5,240 1059.4,237.6 1060,236.6 &#10;&#9;&#9;1062.3,234 1065,236.9 1065.6,237.9 1066.6,239.8 1069,241.7 1070.1,241.7 1070.5,240.9 1070.3,239.8 1069.7,238.8 1069.6,237.7 &#10;&#9;&#9;1069.7,236.8 1073.2,235.1 1075.8,236 1082.2,231.5 1082.7,231 1083.2,229.1 1091.2,234.3 1091.7,235.4 1092.1,237.1 1092,238.3 &#10;&#9;&#9;1091.9,242.1 1101.9,246.9 &#9;" style="paint-order: stroke; stroke: rgb(23, 23, 23); fill: rgb(250, 250, 250); stroke-width: 3px;"/>
    <text style="fill: rgb(23, 23, 23); font-family: Montserrat-Regular; font-size: 16px; font-weight: 700; stroke-width: 3px; white-space: pre;" x="1114.47 1123.17" y="289.601 289.601">Viseu</text>
    <text style="fill: rgb(23, 23, 23); font-family: Montserrat-Regular; font-size: 16px; font-weight: 700; stroke-width: 3px; white-space: pre;"><tspan x="1025.42 1034.12" y="85.941 85.941">Viana do </tspan><tspan x="1031.82" y="101.241">Castelo</tspan></text>
    <text style="fill: rgb(23, 23, 23); font-family: Montserrat-Regular; font-size: 16px; font-weight: 700; stroke-width: 3px; white-space: pre;" x="1145.68 1154.38" y="164.451 164.451">Vila Real</text>
    <text transform="matrix(1 0 0 1 1032.6885 720.1553)" style="fill: rgb(23, 23, 23); font-family: Montserrat-Regular; font-size: 16px; font-weight: 700; stroke-width: 3px; white-space: pre;">Setúbal</text>
    <text transform="matrix(1 0 0 1 1025.0527 535.126)" style="fill: rgb(23, 23, 23); font-family: Montserrat-Regular; font-size: 16px; font-weight: 700; stroke-width: 3px; white-space: pre;">Santarém</text>
    <text transform="matrix(1 0 0 1 1057.0869 210.0195)" style="fill: rgb(23, 23, 23); font-family: Montserrat-Regular; font-size: 16px; font-weight: 700; stroke-width: 3px; white-space: pre;" x="0" y="0">Porto</text>
    <text transform="matrix(1 0 0 1 1127.8916 560.2656)" style="fill: rgb(23, 23, 23); font-family: Montserrat-Regular; font-size: 16px; font-weight: 700; stroke-width: 3px; white-space: pre;">Portalegre</text>
    <text transform="matrix(1 0 0 1 943.5498 584.3799)" style="fill: rgb(23, 23, 23); font-family: Montserrat-Regular; font-size: 16px; font-weight: 700; stroke-width: 3px; white-space: pre;">Lisboa</text>
    <text transform="matrix(1 0 0 1 1000.0615 448.1875)" style="fill: rgb(23, 23, 23); font-family: Montserrat-Regular; font-size: 16px; font-weight: 700; stroke-width: 3px; white-space: pre;">Leiria</text>
    <text transform="matrix(1 0 0 1 1200.9375 309.9629)" style="fill: rgb(23, 23, 23); font-family: Montserrat-Regular; font-size: 16px; font-weight: 700; stroke-width: 3px; white-space: pre;">Guarda</text>
    <text transform="matrix(1 0 0 1 1057.0879 883.4336)" style="fill: rgb(23, 23, 23); font-family: Montserrat-Regular; font-size: 16px; font-weight: 700; stroke-width: 3px; white-space: pre;">Faro</text>
    <text transform="matrix(1 0 0 1 1116.6406 656.3711)" style="fill: rgb(23, 23, 23); font-family: Montserrat-Regular; font-size: 16px; font-weight: 700; stroke-width: 3px; white-space: pre;" x="0 8.3 14.8 22.7 27.5" y="0 0 0 0 0">Évora</text>
    <text transform="matrix(1 0 0 1 1044.3594 392.2666)" style="fill: rgb(23, 23, 23); font-family: Montserrat-Regular; font-size: 16px; font-weight: 700; stroke-width: 3px; white-space: pre;" x="0 8.7" y="0 0">Coimbra</text>
    <text transform="matrix(1 0 0 1 1148.9404 432.501)" style="fill: rgb(23, 23, 23); font-family: Montserrat-Regular; font-size: 16px; font-weight: 700; stroke-width: 3px; white-space: pre;" x="0" y="0">Castelo Branco</text>
    <text transform="matrix(1 0 0 1 1247.7314 152.3818)" style="fill: rgb(23, 23, 23); font-family: Montserrat-Regular; font-size: 16px; font-weight: 700; stroke-width: 3px; white-space: pre;" x="0 9 13.7" y="0 0 0">Bragança</text>
    <text id="Braga_4_" style="fill: rgb(23, 23, 23); font-family: Montserrat-Regular; font-size: 16px; font-weight: 700; stroke-width: 3px; white-space: pre;" x="1058.01 1067.01 1071.7" y="150.52 150.52 150.52">Braga</text>
    <text transform="matrix(1 0 0 1 1104.3896 798.9932)" style="fill: rgb(23, 23, 23); font-family: Montserrat-Regular; font-size: 16px; font-weight: 700; stroke-width: 3px; white-space: pre;">Beja</text>
    <text style="fill: rgb(23, 23, 23); font-family: Montserrat-Regular; font-size: 16px; font-weight: 700; stroke-width: 3px; white-space: pre;" x="1039.78 1048.88 1055.28" y="278.35 278.35 278.35">Aveiro</text>
    <path d="M 1064.195 68.577 C 1062.711 68.125 1060.958 67.8 1059.08 67.62 C 1061.451 64.125 1063.205 59.781 1063.205 56.817 C 1063.205 52.717 1059.807 49.397 1055.614 49.397 C 1051.422 49.397 1048.023 52.717 1048.023 56.817 C 1048.023 59.73 1049.776 64.099 1052.155 67.616 C 1050.259 67.795 1048.493 68.121 1046.996 68.577 C 1045.283 69.098 1043.239 69.997 1043.239 71.314 C 1043.239 73.866 1049.455 75.201 1055.595 75.201 C 1058.795 75.201 1061.81 74.848 1064.085 74.208 C 1066.616 73.495 1067.953 72.494 1067.953 71.314 C 1067.953 69.997 1065.909 69.098 1064.195 68.577 Z M 1055.641 52.994 C 1057.371 52.994 1058.773 54.396 1058.773 56.126 C 1058.773 57.856 1057.371 59.258 1055.641 59.258 C 1053.912 59.258 1052.51 57.856 1052.51 56.126 C 1052.51 54.396 1053.912 52.994 1055.641 52.994 Z M 1066.142 72.131 C 1065.604 72.489 1064.786 72.827 1063.776 73.112 C 1061.598 73.725 1058.693 74.062 1055.595 74.062 C 1052.498 74.062 1049.592 73.725 1047.415 73.112 C 1046.405 72.827 1045.586 72.489 1045.051 72.131 C 1044.617 71.842 1044.378 71.552 1044.378 71.314 C 1044.378 71.155 1044.878 70.411 1047.328 69.667 C 1048.925 69.179 1050.855 68.848 1052.925 68.693 C 1053.621 69.613 1054.353 70.45 1055.102 71.151 C 1055.227 71.292 1055.409 71.381 1055.614 71.381 C 1055.817 71.381 1055.995 71.293 1056.121 71.158 C 1056.872 70.455 1057.609 69.619 1058.307 68.697 C 1060.363 68.853 1062.277 69.183 1063.864 69.667 C 1066.313 70.411 1066.814 71.155 1066.814 71.314 C 1066.814 71.552 1066.575 71.842 1066.142 72.131 Z" style="fill: rgb(242, 66, 84); stroke-width: 3px;"/>
    <path d="M 1084.635 130.664 C 1083.151 130.212 1081.398 129.887 1079.52 129.707 C 1081.891 126.212 1083.645 121.868 1083.645 118.904 C 1083.645 114.804 1080.247 111.484 1076.054 111.484 C 1071.862 111.484 1068.463 114.804 1068.463 118.904 C 1068.463 121.817 1070.216 126.186 1072.595 129.703 C 1070.699 129.882 1068.933 130.208 1067.436 130.664 C 1065.723 131.185 1063.679 132.084 1063.679 133.401 C 1063.679 135.953 1069.895 137.288 1076.035 137.288 C 1079.235 137.288 1082.25 136.935 1084.525 136.295 C 1087.056 135.582 1088.393 134.581 1088.393 133.401 C 1088.393 132.084 1086.349 131.185 1084.635 130.664 Z M 1076.081 115.081 C 1077.811 115.081 1079.213 116.483 1079.213 118.213 C 1079.213 119.943 1077.811 121.345 1076.081 121.345 C 1074.352 121.345 1072.95 119.943 1072.95 118.213 C 1072.95 116.483 1074.352 115.081 1076.081 115.081 Z M 1086.582 134.218 C 1086.044 134.576 1085.226 134.914 1084.216 135.199 C 1082.038 135.812 1079.133 136.149 1076.035 136.149 C 1072.938 136.149 1070.032 135.812 1067.855 135.199 C 1066.845 134.914 1066.026 134.576 1065.491 134.218 C 1065.057 133.929 1064.818 133.639 1064.818 133.401 C 1064.818 133.242 1065.318 132.498 1067.768 131.754 C 1069.365 131.266 1071.295 130.935 1073.365 130.78 C 1074.061 131.7 1074.793 132.537 1075.542 133.238 C 1075.667 133.379 1075.849 133.468 1076.054 133.468 C 1076.257 133.468 1076.435 133.38 1076.561 133.245 C 1077.312 132.542 1078.049 131.706 1078.747 130.784 C 1080.803 130.94 1082.717 131.27 1084.304 131.754 C 1086.753 132.498 1087.254 133.242 1087.254 133.401 C 1087.254 133.639 1087.015 133.929 1086.582 134.218 Z" style="fill: rgb(242, 66, 84); stroke-width: 3px;"/>
    <path d="M 1182.243 144.426 C 1180.759 143.974 1179.006 143.649 1177.128 143.469 C 1179.499 139.974 1181.253 135.63 1181.253 132.666 C 1181.253 128.566 1177.855 125.246 1173.662 125.246 C 1169.47 125.246 1166.071 128.566 1166.071 132.666 C 1166.071 135.579 1167.824 139.948 1170.203 143.465 C 1168.307 143.644 1166.541 143.97 1165.044 144.426 C 1163.331 144.947 1161.287 145.846 1161.287 147.163 C 1161.287 149.715 1167.503 151.05 1173.643 151.05 C 1176.843 151.05 1179.858 150.697 1182.133 150.057 C 1184.664 149.344 1186.001 148.343 1186.001 147.163 C 1186.001 145.846 1183.957 144.947 1182.243 144.426 Z M 1173.689 128.843 C 1175.419 128.843 1176.821 130.245 1176.821 131.975 C 1176.821 133.705 1175.419 135.107 1173.689 135.107 C 1171.96 135.107 1170.558 133.705 1170.558 131.975 C 1170.558 130.245 1171.96 128.843 1173.689 128.843 Z M 1184.19 147.98 C 1183.652 148.338 1182.834 148.676 1181.824 148.961 C 1179.646 149.574 1176.741 149.911 1173.643 149.911 C 1170.546 149.911 1167.64 149.574 1165.463 148.961 C 1164.453 148.676 1163.634 148.338 1163.099 147.98 C 1162.665 147.691 1162.426 147.401 1162.426 147.163 C 1162.426 147.004 1162.926 146.26 1165.376 145.516 C 1166.973 145.028 1168.903 144.697 1170.973 144.542 C 1171.669 145.462 1172.401 146.299 1173.15 147 C 1173.275 147.141 1173.457 147.23 1173.662 147.23 C 1173.865 147.23 1174.043 147.142 1174.169 147.007 C 1174.92 146.304 1175.657 145.468 1176.355 144.546 C 1178.411 144.702 1180.325 145.032 1181.912 145.516 C 1184.361 146.26 1184.862 147.004 1184.862 147.163 C 1184.862 147.401 1184.623 147.691 1184.19 147.98 Z" style="fill: rgb(242, 66, 84); stroke-width: 3px;"/>
    <path d="M 1285.463 134.456 C 1283.979 134.004 1282.226 133.679 1280.348 133.499 C 1282.719 130.004 1284.473 125.66 1284.473 122.696 C 1284.473 118.596 1281.075 115.276 1276.882 115.276 C 1272.69 115.276 1269.291 118.596 1269.291 122.696 C 1269.291 125.609 1271.044 129.978 1273.423 133.495 C 1271.527 133.674 1269.761 134 1268.264 134.456 C 1266.551 134.977 1264.507 135.876 1264.507 137.193 C 1264.507 139.745 1270.723 141.08 1276.863 141.08 C 1280.063 141.08 1283.078 140.727 1285.353 140.087 C 1287.884 139.374 1289.221 138.373 1289.221 137.193 C 1289.221 135.876 1287.177 134.977 1285.463 134.456 Z M 1276.909 118.873 C 1278.639 118.873 1280.041 120.275 1280.041 122.005 C 1280.041 123.735 1278.639 125.137 1276.909 125.137 C 1275.18 125.137 1273.778 123.735 1273.778 122.005 C 1273.778 120.275 1275.18 118.873 1276.909 118.873 Z M 1287.41 138.01 C 1286.872 138.368 1286.054 138.706 1285.044 138.991 C 1282.866 139.604 1279.961 139.941 1276.863 139.941 C 1273.766 139.941 1270.86 139.604 1268.683 138.991 C 1267.673 138.706 1266.854 138.368 1266.319 138.01 C 1265.885 137.721 1265.646 137.431 1265.646 137.193 C 1265.646 137.034 1266.146 136.29 1268.596 135.546 C 1270.193 135.058 1272.123 134.727 1274.193 134.572 C 1274.889 135.492 1275.621 136.329 1276.37 137.03 C 1276.495 137.171 1276.677 137.26 1276.882 137.26 C 1277.085 137.26 1277.263 137.172 1277.389 137.037 C 1278.14 136.334 1278.877 135.498 1279.575 134.576 C 1281.631 134.732 1283.545 135.062 1285.132 135.546 C 1287.581 136.29 1288.082 137.034 1288.082 137.193 C 1288.082 137.431 1287.843 137.721 1287.41 138.01 Z" style="fill: rgb(242, 66, 84); stroke-width: 3px;"/>
    <path d="M 1084.786 192.088 C 1083.302 191.636 1081.549 191.311 1079.671 191.131 C 1082.042 187.636 1083.796 183.292 1083.796 180.328 C 1083.796 176.228 1080.398 172.908 1076.205 172.908 C 1072.013 172.908 1068.614 176.228 1068.614 180.328 C 1068.614 183.241 1070.367 187.61 1072.746 191.127 C 1070.85 191.306 1069.084 191.632 1067.587 192.088 C 1065.874 192.609 1063.83 193.508 1063.83 194.825 C 1063.83 197.377 1070.046 198.712 1076.186 198.712 C 1079.386 198.712 1082.401 198.359 1084.676 197.719 C 1087.207 197.006 1088.544 196.005 1088.544 194.825 C 1088.544 193.508 1086.5 192.609 1084.786 192.088 Z M 1076.232 176.505 C 1077.962 176.505 1079.364 177.907 1079.364 179.637 C 1079.364 181.367 1077.962 182.769 1076.232 182.769 C 1074.503 182.769 1073.101 181.367 1073.101 179.637 C 1073.101 177.907 1074.503 176.505 1076.232 176.505 Z M 1086.733 195.642 C 1086.195 196 1085.377 196.338 1084.367 196.623 C 1082.189 197.236 1079.284 197.573 1076.186 197.573 C 1073.089 197.573 1070.183 197.236 1068.006 196.623 C 1066.996 196.338 1066.177 196 1065.642 195.642 C 1065.208 195.353 1064.969 195.063 1064.969 194.825 C 1064.969 194.666 1065.469 193.922 1067.919 193.178 C 1069.516 192.69 1071.446 192.359 1073.516 192.204 C 1074.212 193.124 1074.944 193.961 1075.693 194.662 C 1075.818 194.803 1076 194.892 1076.205 194.892 C 1076.408 194.892 1076.586 194.804 1076.712 194.669 C 1077.463 193.966 1078.2 193.13 1078.898 192.208 C 1080.954 192.364 1082.868 192.694 1084.455 193.178 C 1086.904 193.922 1087.405 194.666 1087.405 194.825 C 1087.405 195.063 1087.166 195.353 1086.733 195.642 Z" style="fill: rgb(242, 66, 84); stroke-width: 3px;"/>
    <path d="M 1140.757 271.466 C 1139.273 271.014 1137.52 270.689 1135.642 270.509 C 1138.013 267.014 1139.767 262.67 1139.767 259.706 C 1139.767 255.606 1136.369 252.286 1132.176 252.286 C 1127.984 252.286 1124.585 255.606 1124.585 259.706 C 1124.585 262.619 1126.338 266.988 1128.717 270.505 C 1126.821 270.684 1125.055 271.01 1123.558 271.466 C 1121.845 271.987 1119.801 272.886 1119.801 274.203 C 1119.801 276.755 1126.017 278.09 1132.157 278.09 C 1135.357 278.09 1138.372 277.737 1140.647 277.097 C 1143.178 276.384 1144.515 275.383 1144.515 274.203 C 1144.515 272.886 1142.471 271.987 1140.757 271.466 Z M 1132.203 255.883 C 1133.933 255.883 1135.335 257.285 1135.335 259.015 C 1135.335 260.745 1133.933 262.147 1132.203 262.147 C 1130.474 262.147 1129.072 260.745 1129.072 259.015 C 1129.072 257.285 1130.474 255.883 1132.203 255.883 Z M 1142.704 275.02 C 1142.166 275.378 1141.348 275.716 1140.338 276.001 C 1138.16 276.614 1135.255 276.951 1132.157 276.951 C 1129.06 276.951 1126.154 276.614 1123.977 276.001 C 1122.967 275.716 1122.148 275.378 1121.613 275.02 C 1121.179 274.731 1120.94 274.441 1120.94 274.203 C 1120.94 274.044 1121.44 273.3 1123.89 272.556 C 1125.487 272.068 1127.417 271.737 1129.487 271.582 C 1130.183 272.502 1130.915 273.339 1131.664 274.04 C 1131.789 274.181 1131.971 274.27 1132.176 274.27 C 1132.379 274.27 1132.557 274.182 1132.683 274.047 C 1133.434 273.344 1134.171 272.508 1134.869 271.586 C 1136.925 271.742 1138.839 272.072 1140.426 272.556 C 1142.875 273.3 1143.376 274.044 1143.376 274.203 C 1143.376 274.441 1143.137 274.731 1142.704 275.02 Z" style="fill: rgb(242, 66, 84); stroke-width: 3px;"/>
    <path d="M 1068.569 258.484 C 1067.085 258.032 1065.332 257.707 1063.454 257.527 C 1065.825 254.032 1067.579 249.688 1067.579 246.724 C 1067.579 242.624 1064.181 239.304 1059.988 239.304 C 1055.796 239.304 1052.397 242.624 1052.397 246.724 C 1052.397 249.637 1054.15 254.006 1056.529 257.523 C 1054.633 257.702 1052.867 258.028 1051.37 258.484 C 1049.657 259.005 1047.613 259.904 1047.613 261.221 C 1047.613 263.773 1053.829 265.108 1059.969 265.108 C 1063.169 265.108 1066.184 264.755 1068.459 264.115 C 1070.99 263.402 1072.327 262.401 1072.327 261.221 C 1072.327 259.904 1070.283 259.005 1068.569 258.484 Z M 1060.015 242.901 C 1061.745 242.901 1063.147 244.303 1063.147 246.033 C 1063.147 247.763 1061.745 249.165 1060.015 249.165 C 1058.286 249.165 1056.884 247.763 1056.884 246.033 C 1056.884 244.303 1058.286 242.901 1060.015 242.901 Z M 1070.516 262.038 C 1069.978 262.396 1069.16 262.734 1068.15 263.019 C 1065.972 263.632 1063.067 263.969 1059.969 263.969 C 1056.872 263.969 1053.966 263.632 1051.789 263.019 C 1050.779 262.734 1049.96 262.396 1049.425 262.038 C 1048.991 261.749 1048.752 261.459 1048.752 261.221 C 1048.752 261.062 1049.252 260.318 1051.702 259.574 C 1053.299 259.086 1055.229 258.755 1057.299 258.6 C 1057.995 259.52 1058.727 260.357 1059.476 261.058 C 1059.601 261.199 1059.783 261.288 1059.988 261.288 C 1060.191 261.288 1060.369 261.2 1060.495 261.065 C 1061.246 260.362 1061.983 259.526 1062.681 258.604 C 1064.737 258.76 1066.651 259.09 1068.238 259.574 C 1070.687 260.318 1071.188 261.062 1071.188 261.221 C 1071.188 261.459 1070.949 261.749 1070.516 262.038 Z" style="fill: rgb(242, 66, 84); stroke-width: 3px;"/>
    <path d="M 1233.159 290.684 C 1231.675 290.232 1229.922 289.907 1228.044 289.727 C 1230.415 286.232 1232.169 281.888 1232.169 278.924 C 1232.169 274.824 1228.771 271.504 1224.578 271.504 C 1220.386 271.504 1216.987 274.824 1216.987 278.924 C 1216.987 281.837 1218.74 286.206 1221.119 289.723 C 1219.223 289.902 1217.457 290.228 1215.96 290.684 C 1214.247 291.205 1212.203 292.104 1212.203 293.421 C 1212.203 295.973 1218.419 297.308 1224.559 297.308 C 1227.759 297.308 1230.774 296.955 1233.049 296.315 C 1235.58 295.602 1236.917 294.601 1236.917 293.421 C 1236.917 292.104 1234.873 291.205 1233.159 290.684 Z M 1224.605 275.101 C 1226.335 275.101 1227.737 276.503 1227.737 278.233 C 1227.737 279.963 1226.335 281.365 1224.605 281.365 C 1222.876 281.365 1221.474 279.963 1221.474 278.233 C 1221.474 276.503 1222.876 275.101 1224.605 275.101 Z M 1235.106 294.238 C 1234.568 294.596 1233.75 294.934 1232.74 295.219 C 1230.562 295.832 1227.657 296.169 1224.559 296.169 C 1221.462 296.169 1218.556 295.832 1216.379 295.219 C 1215.369 294.934 1214.55 294.596 1214.015 294.238 C 1213.581 293.949 1213.342 293.659 1213.342 293.421 C 1213.342 293.262 1213.842 292.518 1216.292 291.774 C 1217.889 291.286 1219.819 290.955 1221.889 290.8 C 1222.585 291.72 1223.317 292.557 1224.066 293.258 C 1224.191 293.399 1224.373 293.488 1224.578 293.488 C 1224.781 293.488 1224.959 293.4 1225.085 293.265 C 1225.836 292.562 1226.573 291.726 1227.271 290.804 C 1229.327 290.96 1231.241 291.29 1232.828 291.774 C 1235.277 292.518 1235.778 293.262 1235.778 293.421 C 1235.778 293.659 1235.539 293.949 1235.106 294.238 Z" style="fill: rgb(242, 66, 84); stroke-width: 3px;"/>
    <path d="M 1080.048 372.368 C 1078.564 371.916 1076.811 371.591 1074.933 371.411 C 1077.304 367.916 1079.058 363.572 1079.058 360.608 C 1079.058 356.508 1075.66 353.188 1071.467 353.188 C 1067.275 353.188 1063.876 356.508 1063.876 360.608 C 1063.876 363.521 1065.629 367.89 1068.008 371.407 C 1066.112 371.586 1064.346 371.912 1062.849 372.368 C 1061.136 372.889 1059.092 373.788 1059.092 375.105 C 1059.092 377.657 1065.308 378.992 1071.448 378.992 C 1074.648 378.992 1077.663 378.639 1079.938 377.999 C 1082.469 377.286 1083.806 376.285 1083.806 375.105 C 1083.806 373.788 1081.762 372.889 1080.048 372.368 Z M 1071.494 356.785 C 1073.224 356.785 1074.626 358.187 1074.626 359.917 C 1074.626 361.647 1073.224 363.049 1071.494 363.049 C 1069.765 363.049 1068.363 361.647 1068.363 359.917 C 1068.363 358.187 1069.765 356.785 1071.494 356.785 Z M 1081.995 375.922 C 1081.457 376.28 1080.639 376.618 1079.629 376.903 C 1077.451 377.516 1074.546 377.853 1071.448 377.853 C 1068.351 377.853 1065.445 377.516 1063.268 376.903 C 1062.258 376.618 1061.439 376.28 1060.904 375.922 C 1060.47 375.633 1060.231 375.343 1060.231 375.105 C 1060.231 374.946 1060.731 374.202 1063.181 373.458 C 1064.778 372.97 1066.708 372.639 1068.778 372.484 C 1069.474 373.404 1070.206 374.241 1070.955 374.942 C 1071.08 375.083 1071.262 375.172 1071.467 375.172 C 1071.67 375.172 1071.848 375.084 1071.974 374.949 C 1072.725 374.246 1073.462 373.41 1074.16 372.488 C 1076.216 372.644 1078.13 372.974 1079.717 373.458 C 1082.166 374.202 1082.667 374.946 1082.667 375.105 C 1082.667 375.343 1082.428 375.633 1081.995 375.922 Z" style="fill: rgb(242, 66, 84); stroke-width: 3px;"/>
    <path d="M 1206.637 411.612 C 1205.153 411.16 1203.4 410.835 1201.522 410.655 C 1203.893 407.16 1205.647 402.816 1205.647 399.852 C 1205.647 395.752 1202.249 392.432 1198.056 392.432 C 1193.864 392.432 1190.465 395.752 1190.465 399.852 C 1190.465 402.765 1192.218 407.134 1194.597 410.651 C 1192.701 410.83 1190.935 411.156 1189.438 411.612 C 1187.725 412.133 1185.681 413.032 1185.681 414.349 C 1185.681 416.901 1191.897 418.236 1198.037 418.236 C 1201.237 418.236 1204.252 417.883 1206.527 417.243 C 1209.058 416.53 1210.395 415.529 1210.395 414.349 C 1210.395 413.032 1208.351 412.133 1206.637 411.612 Z M 1198.083 396.029 C 1199.813 396.029 1201.215 397.431 1201.215 399.161 C 1201.215 400.891 1199.813 402.293 1198.083 402.293 C 1196.354 402.293 1194.952 400.891 1194.952 399.161 C 1194.952 397.431 1196.354 396.029 1198.083 396.029 Z M 1208.584 415.166 C 1208.046 415.524 1207.228 415.862 1206.218 416.147 C 1204.04 416.76 1201.135 417.097 1198.037 417.097 C 1194.94 417.097 1192.034 416.76 1189.857 416.147 C 1188.847 415.862 1188.028 415.524 1187.493 415.166 C 1187.059 414.877 1186.82 414.587 1186.82 414.349 C 1186.82 414.19 1187.32 413.446 1189.77 412.702 C 1191.367 412.214 1193.297 411.883 1195.367 411.728 C 1196.063 412.648 1196.795 413.485 1197.544 414.186 C 1197.669 414.327 1197.851 414.416 1198.056 414.416 C 1198.259 414.416 1198.437 414.328 1198.563 414.193 C 1199.314 413.49 1200.051 412.654 1200.749 411.732 C 1202.805 411.888 1204.719 412.218 1206.306 412.702 C 1208.755 413.446 1209.256 414.19 1209.256 414.349 C 1209.256 414.587 1209.017 414.877 1208.584 415.166 Z" style="fill: rgb(242, 66, 84); stroke-width: 3px;"/>
    <path d="M 1029.621 427.464 C 1028.137 427.012 1026.384 426.687 1024.506 426.507 C 1026.877 423.012 1028.631 418.668 1028.631 415.704 C 1028.631 411.604 1025.233 408.284 1021.04 408.284 C 1016.848 408.284 1013.449 411.604 1013.449 415.704 C 1013.449 418.617 1015.202 422.986 1017.581 426.503 C 1015.685 426.682 1013.919 427.008 1012.422 427.464 C 1010.709 427.985 1008.665 428.884 1008.665 430.201 C 1008.665 432.753 1014.881 434.088 1021.021 434.088 C 1024.221 434.088 1027.236 433.735 1029.511 433.095 C 1032.042 432.382 1033.379 431.381 1033.379 430.201 C 1033.379 428.884 1031.335 427.985 1029.621 427.464 Z M 1021.067 411.881 C 1022.797 411.881 1024.199 413.283 1024.199 415.013 C 1024.199 416.743 1022.797 418.145 1021.067 418.145 C 1019.338 418.145 1017.936 416.743 1017.936 415.013 C 1017.936 413.283 1019.338 411.881 1021.067 411.881 Z M 1031.568 431.018 C 1031.03 431.376 1030.212 431.714 1029.202 431.999 C 1027.024 432.612 1024.119 432.949 1021.021 432.949 C 1017.924 432.949 1015.018 432.612 1012.841 431.999 C 1011.831 431.714 1011.012 431.376 1010.477 431.018 C 1010.043 430.729 1009.804 430.439 1009.804 430.201 C 1009.804 430.042 1010.304 429.298 1012.754 428.554 C 1014.351 428.066 1016.281 427.735 1018.351 427.58 C 1019.047 428.5 1019.779 429.337 1020.528 430.038 C 1020.653 430.179 1020.835 430.268 1021.04 430.268 C 1021.243 430.268 1021.421 430.18 1021.547 430.045 C 1022.298 429.342 1023.035 428.506 1023.733 427.584 C 1025.789 427.74 1027.703 428.07 1029.29 428.554 C 1031.739 429.298 1032.24 430.042 1032.24 430.201 C 1032.24 430.439 1032.001 430.729 1031.568 431.018 Z" style="fill: rgb(242, 66, 84); stroke-width: 3px;"/>
    <path d="M 1063.863 513.935 C 1062.379 513.483 1060.626 513.158 1058.748 512.978 C 1061.119 509.483 1062.873 505.139 1062.873 502.175 C 1062.873 498.075 1059.475 494.755 1055.282 494.755 C 1051.09 494.755 1047.691 498.075 1047.691 502.175 C 1047.691 505.088 1049.444 509.457 1051.823 512.974 C 1049.927 513.153 1048.161 513.479 1046.664 513.935 C 1044.951 514.456 1042.907 515.355 1042.907 516.672 C 1042.907 519.224 1049.123 520.559 1055.263 520.559 C 1058.463 520.559 1061.478 520.206 1063.753 519.566 C 1066.284 518.853 1067.621 517.852 1067.621 516.672 C 1067.621 515.355 1065.577 514.456 1063.863 513.935 Z M 1055.309 498.352 C 1057.039 498.352 1058.441 499.754 1058.441 501.484 C 1058.441 503.214 1057.039 504.616 1055.309 504.616 C 1053.58 504.616 1052.178 503.214 1052.178 501.484 C 1052.178 499.754 1053.58 498.352 1055.309 498.352 Z M 1065.81 517.489 C 1065.272 517.847 1064.454 518.185 1063.444 518.47 C 1061.266 519.083 1058.361 519.42 1055.263 519.42 C 1052.166 519.42 1049.26 519.083 1047.083 518.47 C 1046.073 518.185 1045.254 517.847 1044.719 517.489 C 1044.285 517.2 1044.046 516.91 1044.046 516.672 C 1044.046 516.513 1044.546 515.769 1046.996 515.025 C 1048.593 514.537 1050.523 514.206 1052.593 514.051 C 1053.289 514.971 1054.021 515.808 1054.77 516.509 C 1054.895 516.65 1055.077 516.739 1055.282 516.739 C 1055.485 516.739 1055.663 516.651 1055.789 516.516 C 1056.54 515.813 1057.277 514.977 1057.975 514.055 C 1060.031 514.211 1061.945 514.541 1063.532 515.025 C 1065.981 515.769 1066.482 516.513 1066.482 516.672 C 1066.482 516.91 1066.243 517.2 1065.81 517.489 Z" style="fill: rgb(242, 66, 84); stroke-width: 3px;"/>
    <path d="M 1169.365 539.524 C 1167.881 539.072 1166.128 538.747 1164.25 538.567 C 1166.621 535.072 1168.375 530.728 1168.375 527.764 C 1168.375 523.664 1164.977 520.344 1160.784 520.344 C 1156.592 520.344 1153.193 523.664 1153.193 527.764 C 1153.193 530.677 1154.946 535.046 1157.325 538.563 C 1155.429 538.742 1153.663 539.068 1152.166 539.524 C 1150.453 540.045 1148.409 540.944 1148.409 542.261 C 1148.409 544.813 1154.625 546.148 1160.765 546.148 C 1163.965 546.148 1166.98 545.795 1169.255 545.155 C 1171.786 544.442 1173.123 543.441 1173.123 542.261 C 1173.123 540.944 1171.079 540.045 1169.365 539.524 Z M 1160.811 523.941 C 1162.541 523.941 1163.943 525.343 1163.943 527.073 C 1163.943 528.803 1162.541 530.205 1160.811 530.205 C 1159.082 530.205 1157.68 528.803 1157.68 527.073 C 1157.68 525.343 1159.082 523.941 1160.811 523.941 Z M 1171.312 543.078 C 1170.774 543.436 1169.956 543.774 1168.946 544.059 C 1166.768 544.672 1163.863 545.009 1160.765 545.009 C 1157.668 545.009 1154.762 544.672 1152.585 544.059 C 1151.575 543.774 1150.756 543.436 1150.221 543.078 C 1149.787 542.789 1149.548 542.499 1149.548 542.261 C 1149.548 542.102 1150.048 541.358 1152.498 540.614 C 1154.095 540.126 1156.025 539.795 1158.095 539.64 C 1158.791 540.56 1159.523 541.397 1160.272 542.098 C 1160.397 542.239 1160.579 542.328 1160.784 542.328 C 1160.987 542.328 1161.165 542.24 1161.291 542.105 C 1162.042 541.402 1162.779 540.566 1163.477 539.644 C 1165.533 539.8 1167.447 540.13 1169.034 540.614 C 1171.483 541.358 1171.984 542.102 1171.984 542.261 C 1171.984 542.499 1171.745 542.789 1171.312 543.078 Z" style="fill: rgb(242, 66, 84); stroke-width: 3px;"/>
    <path d="M 974.002 563.867 C 972.518 563.415 970.765 563.09 968.887 562.91 C 971.258 559.415 973.012 555.071 973.012 552.107 C 973.012 548.007 969.614 544.687 965.421 544.687 C 961.229 544.687 957.83 548.007 957.83 552.107 C 957.83 555.02 959.583 559.389 961.962 562.906 C 960.066 563.085 958.3 563.411 956.803 563.867 C 955.09 564.388 953.046 565.287 953.046 566.604 C 953.046 569.156 959.262 570.491 965.402 570.491 C 968.602 570.491 971.617 570.138 973.892 569.498 C 976.423 568.785 977.76 567.784 977.76 566.604 C 977.76 565.287 975.716 564.388 974.002 563.867 Z M 965.448 548.284 C 967.178 548.284 968.58 549.686 968.58 551.416 C 968.58 553.146 967.178 554.548 965.448 554.548 C 963.719 554.548 962.317 553.146 962.317 551.416 C 962.317 549.686 963.719 548.284 965.448 548.284 Z M 975.949 567.421 C 975.411 567.779 974.593 568.117 973.583 568.402 C 971.405 569.015 968.5 569.352 965.402 569.352 C 962.305 569.352 959.399 569.015 957.222 568.402 C 956.212 568.117 955.393 567.779 954.858 567.421 C 954.424 567.132 954.185 566.842 954.185 566.604 C 954.185 566.445 954.685 565.701 957.135 564.957 C 958.732 564.469 960.662 564.138 962.732 563.983 C 963.428 564.903 964.16 565.74 964.909 566.441 C 965.034 566.582 965.216 566.671 965.421 566.671 C 965.624 566.671 965.802 566.583 965.928 566.448 C 966.679 565.745 967.416 564.909 968.114 563.987 C 970.17 564.143 972.084 564.473 973.671 564.957 C 976.12 565.701 976.621 566.445 976.621 566.604 C 976.621 566.842 976.382 567.132 975.949 567.421 Z" style="fill: rgb(242, 66, 84); stroke-width: 3px;"/>
    <path d="M 1065.286 698.325 C 1063.802 697.873 1062.049 697.548 1060.171 697.368 C 1062.542 693.873 1064.296 689.529 1064.296 686.565 C 1064.296 682.465 1060.898 679.145 1056.705 679.145 C 1052.513 679.145 1049.114 682.465 1049.114 686.565 C 1049.114 689.478 1050.867 693.847 1053.246 697.364 C 1051.35 697.543 1049.584 697.869 1048.087 698.325 C 1046.374 698.846 1044.33 699.745 1044.33 701.062 C 1044.33 703.614 1050.546 704.949 1056.686 704.949 C 1059.886 704.949 1062.901 704.596 1065.176 703.956 C 1067.707 703.243 1069.044 702.242 1069.044 701.062 C 1069.044 699.745 1067 698.846 1065.286 698.325 Z M 1056.732 682.742 C 1058.462 682.742 1059.864 684.144 1059.864 685.874 C 1059.864 687.604 1058.462 689.006 1056.732 689.006 C 1055.003 689.006 1053.601 687.604 1053.601 685.874 C 1053.601 684.144 1055.003 682.742 1056.732 682.742 Z M 1067.233 701.879 C 1066.695 702.237 1065.877 702.575 1064.867 702.86 C 1062.689 703.473 1059.784 703.81 1056.686 703.81 C 1053.589 703.81 1050.683 703.473 1048.506 702.86 C 1047.496 702.575 1046.677 702.237 1046.142 701.879 C 1045.708 701.59 1045.469 701.3 1045.469 701.062 C 1045.469 700.903 1045.969 700.159 1048.419 699.415 C 1050.016 698.927 1051.946 698.596 1054.016 698.441 C 1054.712 699.361 1055.444 700.198 1056.193 700.899 C 1056.318 701.04 1056.5 701.129 1056.705 701.129 C 1056.908 701.129 1057.086 701.041 1057.212 700.906 C 1057.963 700.203 1058.7 699.367 1059.398 698.445 C 1061.454 698.601 1063.368 698.931 1064.955 699.415 C 1067.404 700.159 1067.905 700.903 1067.905 701.062 C 1067.905 701.3 1067.666 701.59 1067.233 701.879 Z" style="fill: rgb(242, 66, 84); stroke-width: 3px;"/>
    <path d="M 1142.62 636.115 C 1141.136 635.663 1139.383 635.338 1137.505 635.158 C 1139.876 631.663 1141.63 627.319 1141.63 624.355 C 1141.63 620.255 1138.232 616.935 1134.039 616.935 C 1129.847 616.935 1126.448 620.255 1126.448 624.355 C 1126.448 627.268 1128.201 631.637 1130.58 635.154 C 1128.684 635.333 1126.918 635.659 1125.421 636.115 C 1123.708 636.636 1121.664 637.535 1121.664 638.852 C 1121.664 641.404 1127.88 642.739 1134.02 642.739 C 1137.22 642.739 1140.235 642.386 1142.51 641.746 C 1145.041 641.033 1146.378 640.032 1146.378 638.852 C 1146.378 637.535 1144.334 636.636 1142.62 636.115 Z M 1134.066 620.532 C 1135.796 620.532 1137.198 621.934 1137.198 623.664 C 1137.198 625.394 1135.796 626.796 1134.066 626.796 C 1132.337 626.796 1130.935 625.394 1130.935 623.664 C 1130.935 621.934 1132.337 620.532 1134.066 620.532 Z M 1144.567 639.669 C 1144.029 640.027 1143.211 640.365 1142.201 640.65 C 1140.023 641.263 1137.118 641.6 1134.02 641.6 C 1130.923 641.6 1128.017 641.263 1125.84 640.65 C 1124.83 640.365 1124.011 640.027 1123.476 639.669 C 1123.042 639.38 1122.803 639.09 1122.803 638.852 C 1122.803 638.693 1123.303 637.949 1125.753 637.205 C 1127.35 636.717 1129.28 636.386 1131.35 636.231 C 1132.046 637.151 1132.778 637.988 1133.527 638.689 C 1133.652 638.83 1133.834 638.919 1134.039 638.919 C 1134.242 638.919 1134.42 638.831 1134.546 638.696 C 1135.297 637.993 1136.034 637.157 1136.732 636.235 C 1138.788 636.391 1140.702 636.721 1142.289 637.205 C 1144.738 637.949 1145.239 638.693 1145.239 638.852 C 1145.239 639.09 1145 639.38 1144.567 639.669 Z" style="fill: rgb(242, 66, 84); stroke-width: 3px;"/>
    <path d="M 1080.352 864.7 C 1078.868 864.248 1077.115 863.923 1075.237 863.743 C 1077.608 860.248 1079.362 855.904 1079.362 852.94 C 1079.362 848.84 1075.964 845.52 1071.771 845.52 C 1067.579 845.52 1064.18 848.84 1064.18 852.94 C 1064.18 855.853 1065.933 860.222 1068.312 863.739 C 1066.416 863.918 1064.65 864.244 1063.153 864.7 C 1061.44 865.221 1059.396 866.12 1059.396 867.437 C 1059.396 869.989 1065.612 871.324 1071.752 871.324 C 1074.952 871.324 1077.967 870.971 1080.242 870.331 C 1082.773 869.618 1084.11 868.617 1084.11 867.437 C 1084.11 866.12 1082.066 865.221 1080.352 864.7 Z M 1071.798 849.117 C 1073.528 849.117 1074.93 850.519 1074.93 852.249 C 1074.93 853.979 1073.528 855.381 1071.798 855.381 C 1070.069 855.381 1068.667 853.979 1068.667 852.249 C 1068.667 850.519 1070.069 849.117 1071.798 849.117 Z M 1082.299 868.254 C 1081.761 868.612 1080.943 868.95 1079.933 869.235 C 1077.755 869.848 1074.85 870.185 1071.752 870.185 C 1068.655 870.185 1065.749 869.848 1063.572 869.235 C 1062.562 868.95 1061.743 868.612 1061.208 868.254 C 1060.774 867.965 1060.535 867.675 1060.535 867.437 C 1060.535 867.278 1061.035 866.534 1063.485 865.79 C 1065.082 865.302 1067.012 864.971 1069.082 864.816 C 1069.778 865.736 1070.51 866.573 1071.259 867.274 C 1071.384 867.415 1071.566 867.504 1071.771 867.504 C 1071.974 867.504 1072.152 867.416 1072.278 867.281 C 1073.029 866.578 1073.766 865.742 1074.464 864.82 C 1076.52 864.976 1078.434 865.306 1080.021 865.79 C 1082.47 866.534 1082.971 867.278 1082.971 867.437 C 1082.971 867.675 1082.732 867.965 1082.299 868.254 Z" style="fill: rgb(242, 66, 84); stroke-width: 3px;"/>
  </g>
</svg>